<?xml version="1.0" encoding="UTF-8" standalone="no"?>
<!DOCTYPE svg PUBLIC "-//W3C//DTD SVG 1.1//EN"
 "http://www.w3.org/Graphics/SVG/1.1/DTD/svg11.dtd">
<!-- Generated by graphviz version 2.43.0 (0)
 -->
<!-- Title: ls::blocks::std::MinMaxIdxBlock&lt; TInput, TOps &gt; Pages: 1 -->
<svg width="759pt" height="72pt"
 viewBox="0.00 0.00 759.00 72.00" xmlns="http://www.w3.org/2000/svg" xmlns:xlink="http://www.w3.org/1999/xlink">
<g id="graph0" class="graph" transform="scale(1 1) rotate(0) translate(4 68)">
<title>ls::blocks::std::MinMaxIdxBlock&lt; TInput, TOps &gt;</title>
<!-- Node1 -->
<g id="node1" class="node">
<title>Node1</title>
<g id="a_node1"><a xlink:title=" ">
<polygon fill="#bfbfbf" stroke="black" points="608,-17 608,-47 751,-47 751,-17 608,-17"/>
<text text-anchor="start" x="616" y="-35" font-family="Helvetica,sans-Serif" font-size="10.00">ls::blocks::std::MinMaxIdx</text>
<text text-anchor="middle" x="679.5" y="-24" font-family="Helvetica,sans-Serif" font-size="10.00">Block&lt; TInput, TOps &gt;</text>
</a>
</g>
</g>
<!-- Node2 -->
<g id="node2" class="node">
<title>Node2</title>
<g id="a_node2"><a xlink:href="classls_1_1blocks_1_1_block.html" target="_top" xlink:title=" ">
<polygon fill="none" stroke="black" points="396,-0.5 396,-63.5 572,-63.5 572,-0.5 396,-0.5"/>
<text text-anchor="start" x="404" y="-51.5" font-family="Helvetica,sans-Serif" font-size="10.00">ls::blocks::Block&lt;</text>
<text text-anchor="start" x="404" y="-40.5" font-family="Helvetica,sans-Serif" font-size="10.00"> ::std::tuple&lt; TInput</text>
<text text-anchor="start" x="404" y="-29.5" font-family="Helvetica,sans-Serif" font-size="10.00"> &gt;, ::std::tuple&lt; int,</text>
<text text-anchor="start" x="404" y="-18.5" font-family="Helvetica,sans-Serif" font-size="10.00"> int, OUTPUT_MINMAXIDXBLOCK</text>
<text text-anchor="middle" x="484" y="-7.5" font-family="Helvetica,sans-Serif" font-size="10.00">()&gt;, BlockProto::empty &gt;</text>
</a>
</g>
</g>
<!-- Node2&#45;&gt;Node1 -->
<g id="edge1" class="edge">
<title>Node2&#45;&gt;Node1</title>
<path fill="none" stroke="midnightblue" d="M582.23,-32C590.85,-32 599.46,-32 607.79,-32"/>
<polygon fill="midnightblue" stroke="midnightblue" points="582.13,-28.5 572.13,-32 582.13,-35.5 582.13,-28.5"/>
</g>
<!-- Node3 -->
<g id="node3" class="node">
<title>Node3</title>
<g id="a_node3"><a xlink:href="classls_1_1blocks_1_1_block_base.html" target="_top" xlink:title=" ">
<polygon fill="none" stroke="black" points="157,-0.5 157,-63.5 360,-63.5 360,-0.5 157,-0.5"/>
<text text-anchor="start" x="165" y="-51.5" font-family="Helvetica,sans-Serif" font-size="10.00">ls::blocks::BlockBase</text>
<text text-anchor="start" x="165" y="-40.5" font-family="Helvetica,sans-Serif" font-size="10.00">&lt; Block&lt; ::std::tuple</text>
<text text-anchor="start" x="165" y="-29.5" font-family="Helvetica,sans-Serif" font-size="10.00">&lt; TInput &gt;, ::std::tuple</text>
<text text-anchor="start" x="165" y="-18.5" font-family="Helvetica,sans-Serif" font-size="10.00">&lt; int, int, OUTPUT_MINMAXIDXBLOCK</text>
<text text-anchor="middle" x="258.5" y="-7.5" font-family="Helvetica,sans-Serif" font-size="10.00">()&gt;, BlockProto::empty &gt; &gt;</text>
</a>
</g>
</g>
<!-- Node3&#45;&gt;Node2 -->
<g id="edge2" class="edge">
<title>Node3&#45;&gt;Node2</title>
<path fill="none" stroke="midnightblue" d="M370.23,-32C378.85,-32 387.47,-32 395.9,-32"/>
<polygon fill="midnightblue" stroke="midnightblue" points="370.14,-28.5 360.14,-32 370.13,-35.5 370.14,-28.5"/>
</g>
<!-- Node4 -->
<g id="node4" class="node">
<title>Node4</title>
<g id="a_node4"><a xlink:href="classls_1_1blocks_1_1_block_proto.html" target="_top" xlink:title=" ">
<polygon fill="none" stroke="black" points="0,-22.5 0,-41.5 121,-41.5 121,-22.5 0,-22.5"/>
<text text-anchor="middle" x="60.5" y="-29.5" font-family="Helvetica,sans-Serif" font-size="10.00">ls::blocks::BlockProto</text>
</a>
</g>
</g>
<!-- Node4&#45;&gt;Node3 -->
<g id="edge3" class="edge">
<title>Node4&#45;&gt;Node3</title>
<path fill="none" stroke="midnightblue" d="M131.16,-32C139.53,-32 148.22,-32 156.92,-32"/>
<polygon fill="midnightblue" stroke="midnightblue" points="131.1,-28.5 121.1,-32 131.1,-35.5 131.1,-28.5"/>
</g>
</g>
</svg>
