<?xml version="1.0" encoding="UTF-8" standalone="no"?>
<!DOCTYPE svg PUBLIC "-//W3C//DTD SVG 1.1//EN"
 "http://www.w3.org/Graphics/SVG/1.1/DTD/svg11.dtd">
<!-- Generated by graphviz version 2.43.0 (0)
 -->
<!-- Title: ls::blocks::std::QuaternionBlock&lt; Eigen::Matrix&lt; TScalar, 3, 1 &gt;, QuaternionBlockParameter::Parametric &gt; Pages: 1 -->
<svg width="788pt" height="94pt"
 viewBox="0.00 0.00 788.00 94.00" xmlns="http://www.w3.org/2000/svg" xmlns:xlink="http://www.w3.org/1999/xlink">
<g id="graph0" class="graph" transform="scale(1 1) rotate(0) translate(4 90)">
<title>ls::blocks::std::QuaternionBlock&lt; Eigen::Matrix&lt; TScalar, 3, 1 &gt;, QuaternionBlockParameter::Parametric &gt;</title>
<!-- Node1 -->
<g id="node1" class="node">
<title>Node1</title>
<g id="a_node1"><a xlink:title=" ">
<polygon fill="#bfbfbf" stroke="black" points="594,-17 594,-69 780,-69 780,-17 594,-17"/>
<text text-anchor="start" x="602" y="-57" font-family="Helvetica,sans-Serif" font-size="10.00">ls::blocks::std::Quaternion</text>
<text text-anchor="start" x="602" y="-46" font-family="Helvetica,sans-Serif" font-size="10.00">Block&lt; Eigen::Matrix&lt; TScalar,</text>
<text text-anchor="start" x="602" y="-35" font-family="Helvetica,sans-Serif" font-size="10.00"> 3, 1 &gt;, QuaternionBlockParameter</text>
<text text-anchor="middle" x="687" y="-24" font-family="Helvetica,sans-Serif" font-size="10.00">::Parametric &gt;</text>
</a>
</g>
</g>
<!-- Node2 -->
<g id="node2" class="node">
<title>Node2</title>
<g id="a_node2"><a xlink:href="classls_1_1blocks_1_1_block.html" target="_top" xlink:title=" ">
<polygon fill="none" stroke="black" points="362,-0.5 362,-85.5 558,-85.5 558,-0.5 362,-0.5"/>
<text text-anchor="start" x="370" y="-73.5" font-family="Helvetica,sans-Serif" font-size="10.00">ls::blocks::Block&lt;</text>
<text text-anchor="start" x="370" y="-62.5" font-family="Helvetica,sans-Serif" font-size="10.00"> ::std::tuple&lt; Eigen</text>
<text text-anchor="start" x="370" y="-51.5" font-family="Helvetica,sans-Serif" font-size="10.00">::Matrix&lt; TScalar, 3,</text>
<text text-anchor="start" x="370" y="-40.5" font-family="Helvetica,sans-Serif" font-size="10.00"> 1 &gt; &gt;, ::std::tuple&lt;</text>
<text text-anchor="start" x="370" y="-29.5" font-family="Helvetica,sans-Serif" font-size="10.00"> Eigen::Matrix&lt; TScalar,</text>
<text text-anchor="start" x="370" y="-18.5" font-family="Helvetica,sans-Serif" font-size="10.00"> 3, 1 &gt; &gt;, ::std::tuple</text>
<text text-anchor="middle" x="460" y="-7.5" font-family="Helvetica,sans-Serif" font-size="10.00">&lt; Eigen::Quaternion&lt; TScalar &gt; &gt; &gt;</text>
</a>
</g>
</g>
<!-- Node2&#45;&gt;Node1 -->
<g id="edge1" class="edge">
<title>Node2&#45;&gt;Node1</title>
<path fill="none" stroke="midnightblue" d="M568.13,-43C576.74,-43 585.4,-43 593.89,-43"/>
<polygon fill="midnightblue" stroke="midnightblue" points="568.05,-39.5 558.05,-43 568.05,-46.5 568.05,-39.5"/>
</g>
<!-- Node3 -->
<g id="node3" class="node">
<title>Node3</title>
<g id="a_node3"><a xlink:href="classls_1_1blocks_1_1_block_base.html" target="_top" xlink:title=" ">
<polygon fill="none" stroke="black" points="157,-0.5 157,-85.5 326,-85.5 326,-0.5 157,-0.5"/>
<text text-anchor="start" x="165" y="-73.5" font-family="Helvetica,sans-Serif" font-size="10.00">ls::blocks::BlockBase</text>
<text text-anchor="start" x="165" y="-62.5" font-family="Helvetica,sans-Serif" font-size="10.00">&lt; Block&lt; ::std::tuple</text>
<text text-anchor="start" x="165" y="-51.5" font-family="Helvetica,sans-Serif" font-size="10.00">&lt; Eigen::Matrix&lt; TScalar,</text>
<text text-anchor="start" x="165" y="-40.5" font-family="Helvetica,sans-Serif" font-size="10.00"> 3, 1 &gt; &gt;, ::std::tuple</text>
<text text-anchor="start" x="165" y="-29.5" font-family="Helvetica,sans-Serif" font-size="10.00">&lt; Eigen::Matrix&lt; TScalar,</text>
<text text-anchor="start" x="165" y="-18.5" font-family="Helvetica,sans-Serif" font-size="10.00"> 3, 1 &gt; &gt;, ::std::tuple&lt; Eigen</text>
<text text-anchor="middle" x="241.5" y="-7.5" font-family="Helvetica,sans-Serif" font-size="10.00">::Quaternion&lt; TScalar &gt; &gt; &gt; &gt;</text>
</a>
</g>
</g>
<!-- Node3&#45;&gt;Node2 -->
<g id="edge2" class="edge">
<title>Node3&#45;&gt;Node2</title>
<path fill="none" stroke="midnightblue" d="M336.4,-43C344.82,-43 353.36,-43 361.81,-43"/>
<polygon fill="midnightblue" stroke="midnightblue" points="336.2,-39.5 326.2,-43 336.2,-46.5 336.2,-39.5"/>
</g>
<!-- Node4 -->
<g id="node4" class="node">
<title>Node4</title>
<g id="a_node4"><a xlink:href="classls_1_1blocks_1_1_block_proto.html" target="_top" xlink:title=" ">
<polygon fill="none" stroke="black" points="0,-33.5 0,-52.5 121,-52.5 121,-33.5 0,-33.5"/>
<text text-anchor="middle" x="60.5" y="-40.5" font-family="Helvetica,sans-Serif" font-size="10.00">ls::blocks::BlockProto</text>
</a>
</g>
</g>
<!-- Node4&#45;&gt;Node3 -->
<g id="edge3" class="edge">
<title>Node4&#45;&gt;Node3</title>
<path fill="none" stroke="midnightblue" d="M131.24,-43C139.66,-43 148.33,-43 156.92,-43"/>
<polygon fill="midnightblue" stroke="midnightblue" points="131.1,-39.5 121.1,-43 131.1,-46.5 131.1,-39.5"/>
</g>
</g>
</svg>
