<?xml version="1.0" encoding="UTF-8" standalone="no"?>
<!DOCTYPE svg PUBLIC "-//W3C//DTD SVG 1.1//EN"
 "http://www.w3.org/Graphics/SVG/1.1/DTD/svg11.dtd">
<!-- Generated by graphviz version 2.43.0 (0)
 -->
<!-- Title: ls::systems::SystemStateless Pages: 1 -->
<svg width="553pt" height="198pt"
 viewBox="0.00 0.00 553.00 197.50" xmlns="http://www.w3.org/2000/svg" xmlns:xlink="http://www.w3.org/1999/xlink">
<g id="graph0" class="graph" transform="scale(1 1) rotate(0) translate(4 193.5)">
<title>ls::systems::SystemStateless</title>
<!-- Node1 -->
<g id="node1" class="node">
<title>Node1</title>
<g id="a_node1"><a xlink:title=" ">
<polygon fill="#bfbfbf" stroke="black" points="0,-91 0,-110 160,-110 160,-91 0,-91"/>
<text text-anchor="middle" x="80" y="-98" font-family="Helvetica,sans-Serif" font-size="10.00">ls::systems::SystemStateless</text>
</a>
</g>
</g>
<!-- Node2 -->
<g id="node2" class="node">
<title>Node2</title>
<g id="a_node2"><a xlink:href="classls_1_1systems_1_1_state_space.html" target="_top" xlink:title=" ">
<polygon fill="none" stroke="black" points="201.5,-148 201.5,-189 348.5,-189 348.5,-148 201.5,-148"/>
<text text-anchor="start" x="209.5" y="-177" font-family="Helvetica,sans-Serif" font-size="10.00">ls::systems::StateSpace</text>
<text text-anchor="start" x="209.5" y="-166" font-family="Helvetica,sans-Serif" font-size="10.00">&lt; TScalar, TStateDim,</text>
<text text-anchor="middle" x="275" y="-155" font-family="Helvetica,sans-Serif" font-size="10.00"> TInputDim, TOutputDim &gt;</text>
</a>
</g>
</g>
<!-- Node1&#45;&gt;Node2 -->
<g id="edge1" class="edge">
<title>Node1&#45;&gt;Node2</title>
<path fill="none" stroke="midnightblue" d="M117.89,-113.5C145.49,-123.22 183.77,-136.71 215.52,-147.89"/>
<polygon fill="midnightblue" stroke="midnightblue" points="118.84,-110.12 108.24,-110.1 116.51,-116.72 118.84,-110.12"/>
</g>
<!-- Node3 -->
<g id="node3" class="node">
<title>Node3</title>
<g id="a_node3"><a xlink:href="classls_1_1systems_1_1_system_stateful.html" target="_top" xlink:title=" ">
<polygon fill="none" stroke="black" points="198.5,-110 198.5,-129 351.5,-129 351.5,-110 198.5,-110"/>
<text text-anchor="middle" x="275" y="-117" font-family="Helvetica,sans-Serif" font-size="10.00">ls::systems::SystemStateful</text>
</a>
</g>
</g>
<!-- Node1&#45;&gt;Node3 -->
<g id="edge2" class="edge">
<title>Node1&#45;&gt;Node3</title>
<path fill="none" stroke="midnightblue" d="M170.25,-109.29C179.69,-110.22 189.23,-111.15 198.49,-112.07"/>
<polygon fill="midnightblue" stroke="midnightblue" points="170.35,-105.78 160.06,-108.28 169.67,-112.75 170.35,-105.78"/>
</g>
<!-- Node5 -->
<g id="node5" class="node">
<title>Node5</title>
<g id="a_node5"><a xlink:href="classls_1_1systems_1_1_transfer_function.html" target="_top" xlink:title=" ">
<polygon fill="none" stroke="black" points="196,-72 196,-91 354,-91 354,-72 196,-72"/>
<text text-anchor="middle" x="275" y="-79" font-family="Helvetica,sans-Serif" font-size="10.00">ls::systems::TransferFunction</text>
</a>
</g>
</g>
<!-- Node1&#45;&gt;Node5 -->
<g id="edge4" class="edge">
<title>Node1&#45;&gt;Node5</title>
<path fill="none" stroke="#8b1a1a" d="M170.05,-91.73C178.61,-90.89 187.25,-90.04 195.69,-89.21"/>
<polygon fill="#8b1a1a" stroke="#8b1a1a" points="169.67,-88.25 160.06,-92.72 170.35,-95.22 169.67,-88.25"/>
</g>
<!-- Node6 -->
<g id="node6" class="node">
<title>Node6</title>
<g id="a_node6"><a xlink:href="classls_1_1systems_1_1_state_space.html" target="_top" xlink:title=" ">
<polygon fill="none" stroke="black" points="202,-0.5 202,-52.5 348,-52.5 348,-0.5 202,-0.5"/>
<text text-anchor="start" x="210" y="-40.5" font-family="Helvetica,sans-Serif" font-size="10.00">ls::systems::StateSpace</text>
<text text-anchor="start" x="210" y="-29.5" font-family="Helvetica,sans-Serif" font-size="10.00">&lt; double, Eigen::Dynamic,</text>
<text text-anchor="start" x="210" y="-18.5" font-family="Helvetica,sans-Serif" font-size="10.00"> Eigen::Dynamic, Eigen::</text>
<text text-anchor="middle" x="275" y="-7.5" font-family="Helvetica,sans-Serif" font-size="10.00">Dynamic &gt;</text>
</a>
</g>
</g>
<!-- Node1&#45;&gt;Node6 -->
<g id="edge5" class="edge">
<title>Node1&#45;&gt;Node6</title>
<path fill="none" stroke="midnightblue" d="M115.3,-87.35C140.44,-77.71 175.41,-64.3 206.12,-52.53"/>
<polygon fill="midnightblue" stroke="midnightblue" points="113.92,-84.13 105.84,-90.98 116.43,-90.67 113.92,-84.13"/>
</g>
<!-- Node4 -->
<g id="node4" class="node">
<title>Node4</title>
<g id="a_node4"><a xlink:href="classls_1_1systems_1_1_discrete_system.html" target="_top" xlink:title=" ">
<polygon fill="none" stroke="black" points="390,-104.5 390,-134.5 545,-134.5 545,-104.5 390,-104.5"/>
<text text-anchor="start" x="398" y="-122.5" font-family="Helvetica,sans-Serif" font-size="10.00">ls::systems::DiscreteSystem</text>
<text text-anchor="middle" x="467.5" y="-111.5" font-family="Helvetica,sans-Serif" font-size="10.00">&lt; SYS &gt;</text>
</a>
</g>
</g>
<!-- Node3&#45;&gt;Node4 -->
<g id="edge3" class="edge">
<title>Node3&#45;&gt;Node4</title>
<path fill="none" stroke="midnightblue" d="M361.66,-119.5C371.03,-119.5 380.53,-119.5 389.78,-119.5"/>
<polygon fill="midnightblue" stroke="midnightblue" points="361.56,-116 351.56,-119.5 361.56,-123 361.56,-116"/>
</g>
<!-- Node7 -->
<g id="node7" class="node">
<title>Node7</title>
<g id="a_node7"><a xlink:href="classls_1_1systems_1_1_discrete_state_space.html" target="_top" xlink:title=" ">
<polygon fill="none" stroke="black" points="390.5,-6 390.5,-47 544.5,-47 544.5,-6 390.5,-6"/>
<text text-anchor="start" x="398.5" y="-35" font-family="Helvetica,sans-Serif" font-size="10.00">ls::systems::DiscreteState</text>
<text text-anchor="start" x="398.5" y="-24" font-family="Helvetica,sans-Serif" font-size="10.00">Space&lt; TScalar, TStateDim,</text>
<text text-anchor="middle" x="467.5" y="-13" font-family="Helvetica,sans-Serif" font-size="10.00"> TInputDim, TOutputDim &gt;</text>
</a>
</g>
</g>
<!-- Node6&#45;&gt;Node7 -->
<g id="edge6" class="edge">
<title>Node6&#45;&gt;Node7</title>
<path fill="none" stroke="midnightblue" d="M358.15,-26.5C368.81,-26.5 379.69,-26.5 390.25,-26.5"/>
<polygon fill="midnightblue" stroke="midnightblue" points="358.02,-23 348.02,-26.5 358.02,-30 358.02,-23"/>
</g>
</g>
</svg>
