<?xml version="1.0" encoding="UTF-8" standalone="no"?>
<!DOCTYPE svg PUBLIC "-//W3C//DTD SVG 1.1//EN"
 "http://www.w3.org/Graphics/SVG/1.1/DTD/svg11.dtd">
<!-- Generated by graphviz version 2.43.0 (0)
 -->
<!-- Title: ls::blocks::std::MuxBlock&lt; TType, TOps &gt; Pages: 1 -->
<svg width="695pt" height="61pt"
 viewBox="0.00 0.00 695.00 61.00" xmlns="http://www.w3.org/2000/svg" xmlns:xlink="http://www.w3.org/1999/xlink">
<g id="graph0" class="graph" transform="scale(1 1) rotate(0) translate(4 57)">
<title>ls::blocks::std::MuxBlock&lt; TType, TOps &gt;</title>
<!-- Node1 -->
<g id="node1" class="node">
<title>Node1</title>
<g id="a_node1"><a xlink:title=" ">
<polygon fill="#bfbfbf" stroke="black" points="550,-11.5 550,-41.5 687,-41.5 687,-11.5 550,-11.5"/>
<text text-anchor="start" x="558" y="-29.5" font-family="Helvetica,sans-Serif" font-size="10.00">ls::blocks::std::MuxBlock</text>
<text text-anchor="middle" x="618.5" y="-18.5" font-family="Helvetica,sans-Serif" font-size="10.00">&lt; TType, TOps &gt;</text>
</a>
</g>
</g>
<!-- Node2 -->
<g id="node2" class="node">
<title>Node2</title>
<g id="a_node2"><a xlink:href="classls_1_1blocks_1_1_block.html" target="_top" xlink:title=" ">
<polygon fill="none" stroke="black" points="379,-0.5 379,-52.5 514,-52.5 514,-0.5 379,-0.5"/>
<text text-anchor="start" x="387" y="-40.5" font-family="Helvetica,sans-Serif" font-size="10.00">ls::blocks::Block&lt;</text>
<text text-anchor="start" x="387" y="-29.5" font-family="Helvetica,sans-Serif" font-size="10.00"> ::std::tuple&lt; TType</text>
<text text-anchor="start" x="387" y="-18.5" font-family="Helvetica,sans-Serif" font-size="10.00"> &gt;, ::std::tuple&lt; TType</text>
<text text-anchor="middle" x="446.5" y="-7.5" font-family="Helvetica,sans-Serif" font-size="10.00"> &gt;, BlockProto::empty &gt;</text>
</a>
</g>
</g>
<!-- Node2&#45;&gt;Node1 -->
<g id="edge1" class="edge">
<title>Node2&#45;&gt;Node1</title>
<path fill="none" stroke="midnightblue" d="M524.46,-26.5C532.94,-26.5 541.52,-26.5 549.87,-26.5"/>
<polygon fill="midnightblue" stroke="midnightblue" points="524.2,-23 514.2,-26.5 524.2,-30 524.2,-23"/>
</g>
<!-- Node3 -->
<g id="node3" class="node">
<title>Node3</title>
<g id="a_node3"><a xlink:href="classls_1_1blocks_1_1_block_base.html" target="_top" xlink:title=" ">
<polygon fill="none" stroke="black" points="157,-0.5 157,-52.5 343,-52.5 343,-0.5 157,-0.5"/>
<text text-anchor="start" x="165" y="-40.5" font-family="Helvetica,sans-Serif" font-size="10.00">ls::blocks::BlockBase</text>
<text text-anchor="start" x="165" y="-29.5" font-family="Helvetica,sans-Serif" font-size="10.00">&lt; Block&lt; ::std::tuple</text>
<text text-anchor="start" x="165" y="-18.5" font-family="Helvetica,sans-Serif" font-size="10.00">&lt; TType &gt;, ::std::tuple</text>
<text text-anchor="middle" x="250" y="-7.5" font-family="Helvetica,sans-Serif" font-size="10.00">&lt; TType &gt;, BlockProto::empty &gt; &gt;</text>
</a>
</g>
</g>
<!-- Node3&#45;&gt;Node2 -->
<g id="edge2" class="edge">
<title>Node3&#45;&gt;Node2</title>
<path fill="none" stroke="midnightblue" d="M353.32,-26.5C362,-26.5 370.63,-26.5 378.92,-26.5"/>
<polygon fill="midnightblue" stroke="midnightblue" points="353.12,-23 343.12,-26.5 353.12,-30 353.12,-23"/>
</g>
<!-- Node4 -->
<g id="node4" class="node">
<title>Node4</title>
<g id="a_node4"><a xlink:href="classls_1_1blocks_1_1_block_proto.html" target="_top" xlink:title=" ">
<polygon fill="none" stroke="black" points="0,-17 0,-36 121,-36 121,-17 0,-17"/>
<text text-anchor="middle" x="60.5" y="-24" font-family="Helvetica,sans-Serif" font-size="10.00">ls::blocks::BlockProto</text>
</a>
</g>
</g>
<!-- Node4&#45;&gt;Node3 -->
<g id="edge3" class="edge">
<title>Node4&#45;&gt;Node3</title>
<path fill="none" stroke="midnightblue" d="M131.12,-26.5C139.47,-26.5 148.09,-26.5 156.7,-26.5"/>
<polygon fill="midnightblue" stroke="midnightblue" points="131.08,-23 121.08,-26.5 131.08,-30 131.08,-23"/>
</g>
</g>
</svg>
