<?xml version="1.0" encoding="UTF-8" standalone="no"?>
<!DOCTYPE svg PUBLIC "-//W3C//DTD SVG 1.1//EN"
 "http://www.w3.org/Graphics/SVG/1.1/DTD/svg11.dtd">
<!-- Generated by graphviz version 2.43.0 (0)
 -->
<!-- Title: ls::blocks::std::DemuxBlock&lt;::std::tuple&lt; TTypes... &gt;, TOps &gt; Pages: 1 -->
<svg width="849pt" height="72pt"
 viewBox="0.00 0.00 849.00 72.00" xmlns="http://www.w3.org/2000/svg" xmlns:xlink="http://www.w3.org/1999/xlink">
<g id="graph0" class="graph" transform="scale(1 1) rotate(0) translate(4 68)">
<title>ls::blocks::std::DemuxBlock&lt;::std::tuple&lt; TTypes... &gt;, TOps &gt;</title>
<!-- Node1 -->
<g id="node1" class="node">
<title>Node1</title>
<g id="a_node1"><a xlink:title=" ">
<polygon fill="#bfbfbf" stroke="black" points="689,-11.5 689,-52.5 841,-52.5 841,-11.5 689,-11.5"/>
<text text-anchor="start" x="697" y="-40.5" font-family="Helvetica,sans-Serif" font-size="10.00">ls::blocks::std::DemuxBlock</text>
<text text-anchor="start" x="697" y="-29.5" font-family="Helvetica,sans-Serif" font-size="10.00">&lt;::std::tuple&lt; TTypes...</text>
<text text-anchor="middle" x="765" y="-18.5" font-family="Helvetica,sans-Serif" font-size="10.00"> &gt;, TOps &gt;</text>
</a>
</g>
</g>
<!-- Node2 -->
<g id="node2" class="node">
<title>Node2</title>
<g id="a_node2"><a xlink:href="classls_1_1blocks_1_1_block.html" target="_top" xlink:title=" ">
<polygon fill="none" stroke="black" points="429,-0.5 429,-63.5 653,-63.5 653,-0.5 429,-0.5"/>
<text text-anchor="start" x="437" y="-51.5" font-family="Helvetica,sans-Serif" font-size="10.00">ls::blocks::Block&lt;</text>
<text text-anchor="start" x="437" y="-40.5" font-family="Helvetica,sans-Serif" font-size="10.00"> ::std::tuple&lt;::std</text>
<text text-anchor="start" x="437" y="-29.5" font-family="Helvetica,sans-Serif" font-size="10.00">::tuple&lt; TTypes... &gt;</text>
<text text-anchor="start" x="437" y="-18.5" font-family="Helvetica,sans-Serif" font-size="10.00"> &gt;, ::std::tuple&lt; TTypes...</text>
<text text-anchor="middle" x="541" y="-7.5" font-family="Helvetica,sans-Serif" font-size="10.00"> &gt;, ::std::tuple&lt; DemuxBlockOperator &gt; &gt;</text>
</a>
</g>
</g>
<!-- Node2&#45;&gt;Node1 -->
<g id="edge1" class="edge">
<title>Node2&#45;&gt;Node1</title>
<path fill="none" stroke="midnightblue" d="M663.44,-32C672.04,-32 680.55,-32 688.77,-32"/>
<polygon fill="midnightblue" stroke="midnightblue" points="663.33,-28.5 653.33,-32 663.33,-35.5 663.33,-28.5"/>
</g>
<!-- Node3 -->
<g id="node3" class="node">
<title>Node3</title>
<g id="a_node3"><a xlink:href="classls_1_1blocks_1_1_block_base.html" target="_top" xlink:title=" ">
<polygon fill="none" stroke="black" points="157,-0.5 157,-63.5 393,-63.5 393,-0.5 157,-0.5"/>
<text text-anchor="start" x="165" y="-51.5" font-family="Helvetica,sans-Serif" font-size="10.00">ls::blocks::BlockBase</text>
<text text-anchor="start" x="165" y="-40.5" font-family="Helvetica,sans-Serif" font-size="10.00">&lt; Block&lt; ::std::tuple</text>
<text text-anchor="start" x="165" y="-29.5" font-family="Helvetica,sans-Serif" font-size="10.00">&lt;::std::tuple&lt; TTypes...</text>
<text text-anchor="start" x="165" y="-18.5" font-family="Helvetica,sans-Serif" font-size="10.00"> &gt; &gt;, ::std::tuple&lt; TTypes...</text>
<text text-anchor="middle" x="275" y="-7.5" font-family="Helvetica,sans-Serif" font-size="10.00"> &gt;, ::std::tuple&lt; DemuxBlockOperator &gt; &gt; &gt;</text>
</a>
</g>
</g>
<!-- Node3&#45;&gt;Node2 -->
<g id="edge2" class="edge">
<title>Node3&#45;&gt;Node2</title>
<path fill="none" stroke="midnightblue" d="M403.35,-32C411.91,-32 420.49,-32 428.95,-32"/>
<polygon fill="midnightblue" stroke="midnightblue" points="403.33,-28.5 393.33,-32 403.33,-35.5 403.33,-28.5"/>
</g>
<!-- Node4 -->
<g id="node4" class="node">
<title>Node4</title>
<g id="a_node4"><a xlink:href="classls_1_1blocks_1_1_block_proto.html" target="_top" xlink:title=" ">
<polygon fill="none" stroke="black" points="0,-22.5 0,-41.5 121,-41.5 121,-22.5 0,-22.5"/>
<text text-anchor="middle" x="60.5" y="-29.5" font-family="Helvetica,sans-Serif" font-size="10.00">ls::blocks::BlockProto</text>
</a>
</g>
</g>
<!-- Node4&#45;&gt;Node3 -->
<g id="edge3" class="edge">
<title>Node4&#45;&gt;Node3</title>
<path fill="none" stroke="midnightblue" d="M131.42,-32C139.59,-32 148.08,-32 156.68,-32"/>
<polygon fill="midnightblue" stroke="midnightblue" points="131.26,-28.5 121.26,-32 131.26,-35.5 131.26,-28.5"/>
</g>
</g>
</svg>
