<?xml version="1.0" encoding="UTF-8" standalone="no"?>
<!DOCTYPE svg PUBLIC "-//W3C//DTD SVG 1.1//EN"
 "http://www.w3.org/Graphics/SVG/1.1/DTD/svg11.dtd">
<!-- Generated by graphviz version 2.43.0 (0)
 -->
<!-- Title: ls::blocks::std::QuaternionBlock&lt; Eigen::Matrix&lt; TScalar, 3, 1 &gt;, QuaternionBlockParameter::AdditionalInput &gt; Pages: 1 -->
<svg width="745pt" height="94pt"
 viewBox="0.00 0.00 745.00 94.00" xmlns="http://www.w3.org/2000/svg" xmlns:xlink="http://www.w3.org/1999/xlink">
<g id="graph0" class="graph" transform="scale(1 1) rotate(0) translate(4 90)">
<title>ls::blocks::std::QuaternionBlock&lt; Eigen::Matrix&lt; TScalar, 3, 1 &gt;, QuaternionBlockParameter::AdditionalInput &gt;</title>
<!-- Node1 -->
<g id="node1" class="node">
<title>Node1</title>
<g id="a_node1"><a xlink:title=" ">
<polygon fill="#bfbfbf" stroke="black" points="551,-17 551,-69 737,-69 737,-17 551,-17"/>
<text text-anchor="start" x="559" y="-57" font-family="Helvetica,sans-Serif" font-size="10.00">ls::blocks::std::Quaternion</text>
<text text-anchor="start" x="559" y="-46" font-family="Helvetica,sans-Serif" font-size="10.00">Block&lt; Eigen::Matrix&lt; TScalar,</text>
<text text-anchor="start" x="559" y="-35" font-family="Helvetica,sans-Serif" font-size="10.00"> 3, 1 &gt;, QuaternionBlockParameter</text>
<text text-anchor="middle" x="644" y="-24" font-family="Helvetica,sans-Serif" font-size="10.00">::AdditionalInput &gt;</text>
</a>
</g>
</g>
<!-- Node2 -->
<g id="node2" class="node">
<title>Node2</title>
<g id="a_node2"><a xlink:href="classls_1_1blocks_1_1_block.html" target="_top" xlink:title=" ">
<polygon fill="none" stroke="black" points="360,-0.5 360,-85.5 515,-85.5 515,-0.5 360,-0.5"/>
<text text-anchor="start" x="368" y="-73.5" font-family="Helvetica,sans-Serif" font-size="10.00">ls::blocks::Block&lt;</text>
<text text-anchor="start" x="368" y="-62.5" font-family="Helvetica,sans-Serif" font-size="10.00"> ::std::tuple&lt; Eigen</text>
<text text-anchor="start" x="368" y="-51.5" font-family="Helvetica,sans-Serif" font-size="10.00">::Matrix&lt; TScalar, 3,</text>
<text text-anchor="start" x="368" y="-40.5" font-family="Helvetica,sans-Serif" font-size="10.00"> 1 &gt;, Eigen::Quaternion</text>
<text text-anchor="start" x="368" y="-29.5" font-family="Helvetica,sans-Serif" font-size="10.00">&lt; TScalar &gt; &gt;, ::std::tuple</text>
<text text-anchor="start" x="368" y="-18.5" font-family="Helvetica,sans-Serif" font-size="10.00">&lt; Eigen::Matrix&lt; TScalar, 3,</text>
<text text-anchor="middle" x="437.5" y="-7.5" font-family="Helvetica,sans-Serif" font-size="10.00"> 1 &gt; &gt;, BlockProto::empty &gt;</text>
</a>
</g>
</g>
<!-- Node2&#45;&gt;Node1 -->
<g id="edge1" class="edge">
<title>Node2&#45;&gt;Node1</title>
<path fill="none" stroke="midnightblue" d="M525.36,-43C533.73,-43 542.24,-43 550.66,-43"/>
<polygon fill="midnightblue" stroke="midnightblue" points="525.23,-39.5 515.23,-43 525.23,-46.5 525.23,-39.5"/>
</g>
<!-- Node3 -->
<g id="node3" class="node">
<title>Node3</title>
<g id="a_node3"><a xlink:href="classls_1_1blocks_1_1_block_base.html" target="_top" xlink:title=" ">
<polygon fill="none" stroke="black" points="157,-0.5 157,-85.5 324,-85.5 324,-0.5 157,-0.5"/>
<text text-anchor="start" x="165" y="-73.5" font-family="Helvetica,sans-Serif" font-size="10.00">ls::blocks::BlockBase</text>
<text text-anchor="start" x="165" y="-62.5" font-family="Helvetica,sans-Serif" font-size="10.00">&lt; Block&lt; ::std::tuple</text>
<text text-anchor="start" x="165" y="-51.5" font-family="Helvetica,sans-Serif" font-size="10.00">&lt; Eigen::Matrix&lt; TScalar,</text>
<text text-anchor="start" x="165" y="-40.5" font-family="Helvetica,sans-Serif" font-size="10.00"> 3, 1 &gt;, Eigen::Quaternion</text>
<text text-anchor="start" x="165" y="-29.5" font-family="Helvetica,sans-Serif" font-size="10.00">&lt; TScalar &gt; &gt;, ::std::tuple</text>
<text text-anchor="start" x="165" y="-18.5" font-family="Helvetica,sans-Serif" font-size="10.00">&lt; Eigen::Matrix&lt; TScalar, 3,</text>
<text text-anchor="middle" x="240.5" y="-7.5" font-family="Helvetica,sans-Serif" font-size="10.00"> 1 &gt; &gt;, BlockProto::empty &gt; &gt;</text>
</a>
</g>
</g>
<!-- Node3&#45;&gt;Node2 -->
<g id="edge2" class="edge">
<title>Node3&#45;&gt;Node2</title>
<path fill="none" stroke="midnightblue" d="M334.24,-43C342.82,-43 351.46,-43 359.87,-43"/>
<polygon fill="midnightblue" stroke="midnightblue" points="334.2,-39.5 324.2,-43 334.2,-46.5 334.2,-39.5"/>
</g>
<!-- Node4 -->
<g id="node4" class="node">
<title>Node4</title>
<g id="a_node4"><a xlink:href="classls_1_1blocks_1_1_block_proto.html" target="_top" xlink:title=" ">
<polygon fill="none" stroke="black" points="0,-33.5 0,-52.5 121,-52.5 121,-33.5 0,-33.5"/>
<text text-anchor="middle" x="60.5" y="-40.5" font-family="Helvetica,sans-Serif" font-size="10.00">ls::blocks::BlockProto</text>
</a>
</g>
</g>
<!-- Node4&#45;&gt;Node3 -->
<g id="edge3" class="edge">
<title>Node4&#45;&gt;Node3</title>
<path fill="none" stroke="midnightblue" d="M131.32,-43C139.68,-43 148.28,-43 156.79,-43"/>
<polygon fill="midnightblue" stroke="midnightblue" points="131.27,-39.5 121.27,-43 131.27,-46.5 131.27,-39.5"/>
</g>
</g>
</svg>
