<?xml version="1.0" encoding="UTF-8" standalone="no"?>
<!DOCTYPE svg PUBLIC "-//W3C//DTD SVG 1.1//EN"
 "http://www.w3.org/Graphics/SVG/1.1/DTD/svg11.dtd">
<!-- Generated by graphviz version 2.43.0 (0)
 -->
<!-- Title: ls::blocks::std::SimplePIDBlock&lt; TType, TOps, SimplePIDBlockParameter::AdditionalInput &gt; Pages: 1 -->
<svg width="734pt" height="83pt"
 viewBox="0.00 0.00 734.00 83.00" xmlns="http://www.w3.org/2000/svg" xmlns:xlink="http://www.w3.org/1999/xlink">
<g id="graph0" class="graph" transform="scale(1 1) rotate(0) translate(4 79)">
<title>ls::blocks::std::SimplePIDBlock&lt; TType, TOps, SimplePIDBlockParameter::AdditionalInput &gt;</title>
<!-- Node1 -->
<g id="node1" class="node">
<title>Node1</title>
<g id="a_node1"><a xlink:title=" ">
<polygon fill="#bfbfbf" stroke="black" points="505,-17 505,-58 726,-58 726,-17 505,-17"/>
<text text-anchor="start" x="513" y="-46" font-family="Helvetica,sans-Serif" font-size="10.00">ls::blocks::std::SimplePIDBlock</text>
<text text-anchor="start" x="513" y="-35" font-family="Helvetica,sans-Serif" font-size="10.00">&lt; TType, TOps, SimplePIDBlockParameter</text>
<text text-anchor="middle" x="615.5" y="-24" font-family="Helvetica,sans-Serif" font-size="10.00">::AdditionalInput &gt;</text>
</a>
</g>
</g>
<!-- Node2 -->
<g id="node2" class="node">
<title>Node2</title>
<g id="a_node2"><a xlink:href="classls_1_1blocks_1_1_block.html" target="_top" xlink:title=" ">
<polygon fill="none" stroke="black" points="321,-6 321,-69 469,-69 469,-6 321,-6"/>
<text text-anchor="start" x="329" y="-57" font-family="Helvetica,sans-Serif" font-size="10.00">ls::blocks::Block&lt;</text>
<text text-anchor="start" x="329" y="-46" font-family="Helvetica,sans-Serif" font-size="10.00"> ::std::tuple&lt; TType,</text>
<text text-anchor="start" x="329" y="-35" font-family="Helvetica,sans-Serif" font-size="10.00"> TType, TType, TType</text>
<text text-anchor="start" x="329" y="-24" font-family="Helvetica,sans-Serif" font-size="10.00"> &gt;, ::std::tuple&lt; TType</text>
<text text-anchor="middle" x="395" y="-13" font-family="Helvetica,sans-Serif" font-size="10.00"> &gt;, ::std::tuple&lt; TType &gt; &gt;</text>
</a>
</g>
</g>
<!-- Node2&#45;&gt;Node1 -->
<g id="edge1" class="edge">
<title>Node2&#45;&gt;Node1</title>
<path fill="none" stroke="midnightblue" d="M479.2,-37.5C487.62,-37.5 496.26,-37.5 504.89,-37.5"/>
<polygon fill="midnightblue" stroke="midnightblue" points="479.06,-34 469.06,-37.5 479.06,-41 479.06,-34"/>
</g>
<!-- Node3 -->
<g id="node3" class="node">
<title>Node3</title>
<g id="a_node3"><a xlink:href="classls_1_1blocks_1_1_block_base.html" target="_top" xlink:title=" ">
<polygon fill="none" stroke="black" points="157,-0.5 157,-74.5 285,-74.5 285,-0.5 157,-0.5"/>
<text text-anchor="start" x="165" y="-62.5" font-family="Helvetica,sans-Serif" font-size="10.00">ls::blocks::BlockBase</text>
<text text-anchor="start" x="165" y="-51.5" font-family="Helvetica,sans-Serif" font-size="10.00">&lt; Block&lt; ::std::tuple</text>
<text text-anchor="start" x="165" y="-40.5" font-family="Helvetica,sans-Serif" font-size="10.00">&lt; TType, TType, TType,</text>
<text text-anchor="start" x="165" y="-29.5" font-family="Helvetica,sans-Serif" font-size="10.00"> TType &gt;, ::std::tuple</text>
<text text-anchor="start" x="165" y="-18.5" font-family="Helvetica,sans-Serif" font-size="10.00">&lt; TType &gt;, ::std::tuple</text>
<text text-anchor="middle" x="221" y="-7.5" font-family="Helvetica,sans-Serif" font-size="10.00">&lt; TType &gt; &gt; &gt;</text>
</a>
</g>
</g>
<!-- Node3&#45;&gt;Node2 -->
<g id="edge2" class="edge">
<title>Node3&#45;&gt;Node2</title>
<path fill="none" stroke="midnightblue" d="M295.26,-37.5C303.7,-37.5 312.3,-37.5 320.74,-37.5"/>
<polygon fill="midnightblue" stroke="midnightblue" points="295.07,-34 285.07,-37.5 295.07,-41 295.07,-34"/>
</g>
<!-- Node4 -->
<g id="node4" class="node">
<title>Node4</title>
<g id="a_node4"><a xlink:href="classls_1_1blocks_1_1_block_proto.html" target="_top" xlink:title=" ">
<polygon fill="none" stroke="black" points="0,-28 0,-47 121,-47 121,-28 0,-28"/>
<text text-anchor="middle" x="60.5" y="-35" font-family="Helvetica,sans-Serif" font-size="10.00">ls::blocks::BlockProto</text>
</a>
</g>
</g>
<!-- Node4&#45;&gt;Node3 -->
<g id="edge3" class="edge">
<title>Node4&#45;&gt;Node3</title>
<path fill="none" stroke="midnightblue" d="M131.58,-37.5C139.98,-37.5 148.52,-37.5 156.82,-37.5"/>
<polygon fill="midnightblue" stroke="midnightblue" points="131.42,-34 121.42,-37.5 131.42,-41 131.42,-34"/>
</g>
</g>
</svg>
