<?xml version="1.0" encoding="UTF-8" standalone="no"?>
<!DOCTYPE svg PUBLIC "-//W3C//DTD SVG 1.1//EN"
 "http://www.w3.org/Graphics/SVG/1.1/DTD/svg11.dtd">
<!-- Generated by graphviz version 2.43.0 (0)
 -->
<!-- Title: ls::blocks::std::SumBlock&lt; TType, N &gt; Pages: 1 -->
<svg width="727pt" height="94pt"
 viewBox="0.00 0.00 727.00 94.00" xmlns="http://www.w3.org/2000/svg" xmlns:xlink="http://www.w3.org/1999/xlink">
<g id="graph0" class="graph" transform="scale(1 1) rotate(0) translate(4 90)">
<title>ls::blocks::std::SumBlock&lt; TType, N &gt;</title>
<!-- Node1 -->
<g id="node1" class="node">
<title>Node1</title>
<g id="a_node1"><a xlink:title=" ">
<polygon fill="#bfbfbf" stroke="black" points="581,-28 581,-58 719,-58 719,-28 581,-28"/>
<text text-anchor="start" x="589" y="-46" font-family="Helvetica,sans-Serif" font-size="10.00">ls::blocks::std::SumBlock</text>
<text text-anchor="middle" x="650" y="-35" font-family="Helvetica,sans-Serif" font-size="10.00">&lt; TType, N &gt;</text>
</a>
</g>
</g>
<!-- Node2 -->
<g id="node2" class="node">
<title>Node2</title>
<g id="a_node2"><a xlink:href="classls_1_1blocks_1_1_block.html" target="_top" xlink:title=" ">
<polygon fill="none" stroke="black" points="369,-0.5 369,-85.5 545,-85.5 545,-0.5 369,-0.5"/>
<text text-anchor="start" x="377" y="-73.5" font-family="Helvetica,sans-Serif" font-size="10.00">ls::blocks::Block&lt;</text>
<text text-anchor="start" x="377" y="-62.5" font-family="Helvetica,sans-Serif" font-size="10.00"> ls::aux::TemplateTools</text>
<text text-anchor="start" x="377" y="-51.5" font-family="Helvetica,sans-Serif" font-size="10.00">::repeat&lt; TType, N, ::std</text>
<text text-anchor="start" x="377" y="-40.5" font-family="Helvetica,sans-Serif" font-size="10.00">::tuple &gt;::type, ::std::tuple</text>
<text text-anchor="start" x="377" y="-29.5" font-family="Helvetica,sans-Serif" font-size="10.00">&lt; TType &gt;, ::std::tuple&lt;::std</text>
<text text-anchor="start" x="377" y="-18.5" font-family="Helvetica,sans-Serif" font-size="10.00">::array&lt; SumBlockOperator, N &gt;</text>
<text text-anchor="middle" x="457" y="-7.5" font-family="Helvetica,sans-Serif" font-size="10.00">, TType &gt; &gt;</text>
</a>
</g>
</g>
<!-- Node2&#45;&gt;Node1 -->
<g id="edge1" class="edge">
<title>Node2&#45;&gt;Node1</title>
<path fill="none" stroke="midnightblue" d="M555.27,-43C563.92,-43 572.56,-43 580.89,-43"/>
<polygon fill="midnightblue" stroke="midnightblue" points="555.12,-39.5 545.12,-43 555.12,-46.5 555.12,-39.5"/>
</g>
<!-- Node3 -->
<g id="node3" class="node">
<title>Node3</title>
<g id="a_node3"><a xlink:href="classls_1_1blocks_1_1_block_base.html" target="_top" xlink:title=" ">
<polygon fill="none" stroke="black" points="157,-0.5 157,-85.5 333,-85.5 333,-0.5 157,-0.5"/>
<text text-anchor="start" x="165" y="-73.5" font-family="Helvetica,sans-Serif" font-size="10.00">ls::blocks::BlockBase</text>
<text text-anchor="start" x="165" y="-62.5" font-family="Helvetica,sans-Serif" font-size="10.00">&lt; Block&lt; ls::aux::TemplateTools</text>
<text text-anchor="start" x="165" y="-51.5" font-family="Helvetica,sans-Serif" font-size="10.00">::repeat&lt; TType, N, ::std::</text>
<text text-anchor="start" x="165" y="-40.5" font-family="Helvetica,sans-Serif" font-size="10.00">tuple &gt;::type, ::std::tuple</text>
<text text-anchor="start" x="165" y="-29.5" font-family="Helvetica,sans-Serif" font-size="10.00">&lt; TType &gt;, ::std::tuple&lt;::std</text>
<text text-anchor="start" x="165" y="-18.5" font-family="Helvetica,sans-Serif" font-size="10.00">::array&lt; SumBlockOperator, N &gt;</text>
<text text-anchor="middle" x="245" y="-7.5" font-family="Helvetica,sans-Serif" font-size="10.00">, TType &gt; &gt; &gt;</text>
</a>
</g>
</g>
<!-- Node3&#45;&gt;Node2 -->
<g id="edge2" class="edge">
<title>Node3&#45;&gt;Node2</title>
<path fill="none" stroke="midnightblue" d="M343.46,-43C351.88,-43 360.37,-43 368.7,-43"/>
<polygon fill="midnightblue" stroke="midnightblue" points="343.23,-39.5 333.23,-43 343.23,-46.5 343.23,-39.5"/>
</g>
<!-- Node4 -->
<g id="node4" class="node">
<title>Node4</title>
<g id="a_node4"><a xlink:href="classls_1_1blocks_1_1_block_proto.html" target="_top" xlink:title=" ">
<polygon fill="none" stroke="black" points="0,-33.5 0,-52.5 121,-52.5 121,-33.5 0,-33.5"/>
<text text-anchor="middle" x="60.5" y="-40.5" font-family="Helvetica,sans-Serif" font-size="10.00">ls::blocks::BlockProto</text>
</a>
</g>
</g>
<!-- Node4&#45;&gt;Node3 -->
<g id="edge3" class="edge">
<title>Node4&#45;&gt;Node3</title>
<path fill="none" stroke="midnightblue" d="M131.1,-43C139.49,-43 148.15,-43 156.76,-43"/>
<polygon fill="midnightblue" stroke="midnightblue" points="131,-39.5 121,-43 131,-46.5 131,-39.5"/>
</g>
</g>
</svg>
