<?xml version="1.0" encoding="UTF-8" standalone="no"?>
<!DOCTYPE svg PUBLIC "-//W3C//DTD SVG 1.1//EN"
 "http://www.w3.org/Graphics/SVG/1.1/DTD/svg11.dtd">
<!-- Generated by graphviz version 2.43.0 (0)
 -->
<!-- Title: ls::blocks::aux::Executor Pages: 1 -->
<svg width="338pt" height="184pt"
 viewBox="0.00 0.00 338.00 184.00" xmlns="http://www.w3.org/2000/svg" xmlns:xlink="http://www.w3.org/1999/xlink">
<g id="graph0" class="graph" transform="scale(1 1) rotate(0) translate(4 180)">
<title>ls::blocks::aux::Executor</title>
<!-- Node1 -->
<g id="node1" class="node">
<title>Node1</title>
<g id="a_node1"><a xlink:title=" ">
<polygon fill="#bfbfbf" stroke="black" points="90,-0.5 90,-19.5 224,-19.5 224,-0.5 90,-0.5"/>
<text text-anchor="middle" x="157" y="-7.5" font-family="Helvetica,sans-Serif" font-size="10.00">ls::blocks::aux::Executor</text>
</a>
</g>
</g>
<!-- Node2 -->
<g id="node2" class="node">
<title>Node2</title>
<g id="a_node2"><a xlink:href="structls_1_1blocks_1_1aux_1_1_strongly_connected_components_1_1_s_c_c_result.html" target="_top" xlink:title=" ">
<polygon fill="none" stroke="black" points="0,-67.5 0,-97.5 186,-97.5 186,-67.5 0,-67.5"/>
<text text-anchor="start" x="8" y="-85.5" font-family="Helvetica,sans-Serif" font-size="10.00">ls::blocks::aux::Strongly</text>
<text text-anchor="middle" x="93" y="-74.5" font-family="Helvetica,sans-Serif" font-size="10.00">ConnectedComponents::SCCResult</text>
</a>
</g>
</g>
<!-- Node2&#45;&gt;Node1 -->
<g id="edge1" class="edge">
<title>Node2&#45;&gt;Node1</title>
<path fill="none" stroke="#9a32cd" stroke-dasharray="5,2" d="M112.73,-59.76C124.91,-46.34 139.89,-29.85 148.93,-19.89"/>
<polygon fill="#9a32cd" stroke="#9a32cd" points="110.08,-57.48 105.95,-67.23 115.26,-62.18 110.08,-57.48"/>
<text text-anchor="middle" x="162" y="-41" font-family="Helvetica,sans-Serif" font-size="10.00"> components</text>
</g>
<!-- Node3 -->
<g id="node3" class="node">
<title>Node3</title>
<g id="a_node3"><a xlink:href="structls_1_1blocks_1_1_block_pack.html" target="_top" xlink:title=" ">
<polygon fill="none" stroke="black" points="204,-73 204,-92 322,-92 322,-73 204,-73"/>
<text text-anchor="middle" x="263" y="-80" font-family="Helvetica,sans-Serif" font-size="10.00">ls::blocks::BlockPack</text>
</a>
</g>
</g>
<!-- Node3&#45;&gt;Node1 -->
<g id="edge2" class="edge">
<title>Node3&#45;&gt;Node1</title>
<path fill="none" stroke="#9a32cd" stroke-dasharray="5,2" d="M241.58,-67.11C228.92,-58.62 212.57,-47.67 198,-38 188.77,-31.87 178.34,-25.01 170.31,-19.73"/>
<polygon fill="#9a32cd" stroke="#9a32cd" points="239.82,-70.14 250.07,-72.81 243.72,-64.33 239.82,-70.14"/>
<text text-anchor="middle" x="240" y="-41" font-family="Helvetica,sans-Serif" font-size="10.00"> blockPack</text>
</g>
<!-- Node4 -->
<g id="node4" class="node">
<title>Node4</title>
<g id="a_node4"><a xlink:href="classls_1_1blocks_1_1aux_1_1_directed_graph.html" target="_top" xlink:title=" ">
<polygon fill="none" stroke="black" points="196,-145.5 196,-175.5 330,-175.5 330,-145.5 196,-145.5"/>
<text text-anchor="start" x="204" y="-163.5" font-family="Helvetica,sans-Serif" font-size="10.00">ls::blocks::aux::Directed</text>
<text text-anchor="middle" x="263" y="-152.5" font-family="Helvetica,sans-Serif" font-size="10.00">Graph</text>
</a>
</g>
</g>
<!-- Node4&#45;&gt;Node3 -->
<g id="edge3" class="edge">
<title>Node4&#45;&gt;Node3</title>
<path fill="none" stroke="#9a32cd" stroke-dasharray="5,2" d="M263,-135.17C263,-120.4 263,-102.45 263,-92.06"/>
<polygon fill="#9a32cd" stroke="#9a32cd" points="259.5,-135.2 263,-145.2 266.5,-135.21 259.5,-135.2"/>
<text text-anchor="middle" x="278.5" y="-119" font-family="Helvetica,sans-Serif" font-size="10.00"> graph</text>
</g>
</g>
</svg>
