<?xml version="1.0" encoding="UTF-8" standalone="no"?>
<!DOCTYPE svg PUBLIC "-//W3C//DTD SVG 1.1//EN"
 "http://www.w3.org/Graphics/SVG/1.1/DTD/svg11.dtd">
<!-- Generated by graphviz version 2.43.0 (0)
 -->
<!-- Title: ls::blocks::std::GainBlock&lt; TInput, TGain, TOps, TConv &gt; Pages: 1 -->
<svg width="744pt" height="72pt"
 viewBox="0.00 0.00 744.00 72.00" xmlns="http://www.w3.org/2000/svg" xmlns:xlink="http://www.w3.org/1999/xlink">
<g id="graph0" class="graph" transform="scale(1 1) rotate(0) translate(4 68)">
<title>ls::blocks::std::GainBlock&lt; TInput, TGain, TOps, TConv &gt;</title>
<!-- Node1 -->
<g id="node1" class="node">
<title>Node1</title>
<g id="a_node1"><a xlink:title="Multiplies input by a value (gain).">
<polygon fill="#bfbfbf" stroke="black" points="565,-17 565,-47 736,-47 736,-17 565,-17"/>
<text text-anchor="start" x="573" y="-35" font-family="Helvetica,sans-Serif" font-size="10.00">ls::blocks::std::GainBlock</text>
<text text-anchor="middle" x="650.5" y="-24" font-family="Helvetica,sans-Serif" font-size="10.00">&lt; TInput, TGain, TOps, TConv &gt;</text>
</a>
</g>
</g>
<!-- Node2 -->
<g id="node2" class="node">
<title>Node2</title>
<g id="a_node2"><a xlink:href="classls_1_1blocks_1_1_block.html" target="_top" xlink:title=" ">
<polygon fill="none" stroke="black" points="376,-0.5 376,-63.5 529,-63.5 529,-0.5 376,-0.5"/>
<text text-anchor="start" x="384" y="-51.5" font-family="Helvetica,sans-Serif" font-size="10.00">ls::blocks::Block&lt;</text>
<text text-anchor="start" x="384" y="-40.5" font-family="Helvetica,sans-Serif" font-size="10.00"> ::std::tuple&lt; TInput</text>
<text text-anchor="start" x="384" y="-29.5" font-family="Helvetica,sans-Serif" font-size="10.00"> &gt;, ::std::tuple&lt; OUTPUT</text>
<text text-anchor="start" x="384" y="-18.5" font-family="Helvetica,sans-Serif" font-size="10.00">_GAINBLOCK()&gt;, ::std::tuple</text>
<text text-anchor="middle" x="452.5" y="-7.5" font-family="Helvetica,sans-Serif" font-size="10.00">&lt; TInput, double &gt; &gt;</text>
</a>
</g>
</g>
<!-- Node2&#45;&gt;Node1 -->
<g id="edge1" class="edge">
<title>Node2&#45;&gt;Node1</title>
<path fill="none" stroke="midnightblue" d="M539.46,-32C547.87,-32 556.4,-32 564.8,-32"/>
<polygon fill="midnightblue" stroke="midnightblue" points="539.28,-28.5 529.28,-32 539.28,-35.5 539.28,-28.5"/>
</g>
<!-- Node3 -->
<g id="node3" class="node">
<title>Node3</title>
<g id="a_node3"><a xlink:href="classls_1_1blocks_1_1_block_base.html" target="_top" xlink:title=" ">
<polygon fill="none" stroke="black" points="157,-0.5 157,-63.5 340,-63.5 340,-0.5 157,-0.5"/>
<text text-anchor="start" x="165" y="-51.5" font-family="Helvetica,sans-Serif" font-size="10.00">ls::blocks::BlockBase</text>
<text text-anchor="start" x="165" y="-40.5" font-family="Helvetica,sans-Serif" font-size="10.00">&lt; Block&lt; ::std::tuple</text>
<text text-anchor="start" x="165" y="-29.5" font-family="Helvetica,sans-Serif" font-size="10.00">&lt; TInput &gt;, ::std::tuple</text>
<text text-anchor="start" x="165" y="-18.5" font-family="Helvetica,sans-Serif" font-size="10.00">&lt; OUTPUT_GAINBLOCK()&gt;, </text>
<text text-anchor="middle" x="248.5" y="-7.5" font-family="Helvetica,sans-Serif" font-size="10.00">::std::tuple&lt; TInput, double &gt; &gt; &gt;</text>
</a>
</g>
</g>
<!-- Node3&#45;&gt;Node2 -->
<g id="edge2" class="edge">
<title>Node3&#45;&gt;Node2</title>
<path fill="none" stroke="midnightblue" d="M350.28,-32C358.91,-32 367.55,-32 375.94,-32"/>
<polygon fill="midnightblue" stroke="midnightblue" points="350.16,-28.5 340.16,-32 350.16,-35.5 350.16,-28.5"/>
</g>
<!-- Node4 -->
<g id="node4" class="node">
<title>Node4</title>
<g id="a_node4"><a xlink:href="classls_1_1blocks_1_1_block_proto.html" target="_top" xlink:title=" ">
<polygon fill="none" stroke="black" points="0,-22.5 0,-41.5 121,-41.5 121,-22.5 0,-22.5"/>
<text text-anchor="middle" x="60.5" y="-29.5" font-family="Helvetica,sans-Serif" font-size="10.00">ls::blocks::BlockProto</text>
</a>
</g>
</g>
<!-- Node4&#45;&gt;Node3 -->
<g id="edge3" class="edge">
<title>Node4&#45;&gt;Node3</title>
<path fill="none" stroke="midnightblue" d="M131.15,-32C139.5,-32 148.12,-32 156.71,-32"/>
<polygon fill="midnightblue" stroke="midnightblue" points="131.12,-28.5 121.12,-32 131.12,-35.5 131.12,-28.5"/>
</g>
</g>
</svg>
