<?xml version="1.0" encoding="UTF-8" standalone="no"?>
<!DOCTYPE svg PUBLIC "-//W3C//DTD SVG 1.1//EN"
 "http://www.w3.org/Graphics/SVG/1.1/DTD/svg11.dtd">
<!-- Generated by graphviz version 2.43.0 (0)
 -->
<!-- Title: ls::primitives::detail::RungeKuttaFehlberg78Impl Pages: 1 -->
<svg width="419pt" height="88pt"
 viewBox="0.00 0.00 419.00 88.00" xmlns="http://www.w3.org/2000/svg" xmlns:xlink="http://www.w3.org/1999/xlink">
<g id="graph0" class="graph" transform="scale(1 1) rotate(0) translate(4 84)">
<title>ls::primitives::detail::RungeKuttaFehlberg78Impl</title>
<!-- Node1 -->
<g id="node1" class="node">
<title>Node1</title>
<g id="a_node1"><a xlink:title=" ">
<polygon fill="#bfbfbf" stroke="black" points="256,-24.5 256,-54.5 411,-54.5 411,-24.5 256,-24.5"/>
<text text-anchor="start" x="264" y="-42.5" font-family="Helvetica,sans-Serif" font-size="10.00">ls::primitives::detail</text>
<text text-anchor="middle" x="333.5" y="-31.5" font-family="Helvetica,sans-Serif" font-size="10.00">::RungeKuttaFehlberg78Impl</text>
</a>
</g>
</g>
<!-- Node2 -->
<g id="node2" class="node">
<title>Node2</title>
<g id="a_node2"><a xlink:href="classls_1_1primitives_1_1_butcher_tableau.html" target="_top" xlink:title=" ">
<polygon fill="none" stroke="black" points="0,-49.5 0,-79.5 161,-79.5 161,-49.5 0,-49.5"/>
<text text-anchor="start" x="8" y="-67.5" font-family="Helvetica,sans-Serif" font-size="10.00">ls::primitives::ButcherTableau</text>
<text text-anchor="middle" x="80.5" y="-56.5" font-family="Helvetica,sans-Serif" font-size="10.00">&lt; 13, false &gt;</text>
</a>
</g>
</g>
<!-- Node2&#45;&gt;Node1 -->
<g id="edge1" class="edge">
<title>Node2&#45;&gt;Node1</title>
<path fill="none" stroke="#9a32cd" stroke-dasharray="5,2" d="M171.34,-55.55C199.02,-52.79 229.24,-49.79 255.94,-47.13"/>
<polygon fill="#9a32cd" stroke="#9a32cd" points="170.87,-52.08 161.26,-56.56 171.56,-59.05 170.87,-52.08"/>
<text text-anchor="middle" x="208.5" y="-56.5" font-family="Helvetica,sans-Serif" font-size="10.00"> btSimple</text>
</g>
<!-- Node3 -->
<g id="node3" class="node">
<title>Node3</title>
<g id="a_node3"><a xlink:href="classls_1_1primitives_1_1_butcher_tableau.html" target="_top" xlink:title=" ">
<polygon fill="none" stroke="black" points="0,-0.5 0,-30.5 161,-30.5 161,-0.5 0,-0.5"/>
<text text-anchor="start" x="8" y="-18.5" font-family="Helvetica,sans-Serif" font-size="10.00">ls::primitives::ButcherTableau</text>
<text text-anchor="middle" x="80.5" y="-7.5" font-family="Helvetica,sans-Serif" font-size="10.00">&lt; 13, true &gt;</text>
</a>
</g>
</g>
<!-- Node3&#45;&gt;Node1 -->
<g id="edge2" class="edge">
<title>Node3&#45;&gt;Node1</title>
<path fill="none" stroke="#9a32cd" stroke-dasharray="5,2" d="M171.34,-24.09C199.02,-26.74 229.24,-29.63 255.94,-32.18"/>
<polygon fill="#9a32cd" stroke="#9a32cd" points="171.55,-20.59 161.26,-23.13 170.88,-27.56 171.55,-20.59"/>
<text text-anchor="middle" x="208.5" y="-32.5" font-family="Helvetica,sans-Serif" font-size="10.00"> btExtended</text>
</g>
</g>
</svg>
