<?xml version="1.0" encoding="UTF-8" standalone="no"?>
<!DOCTYPE svg PUBLIC "-//W3C//DTD SVG 1.1//EN"
 "http://www.w3.org/Graphics/SVG/1.1/DTD/svg11.dtd">
<!-- Generated by graphviz version 2.43.0 (0)
 -->
<!-- Title: ls::blocks::std::FunctionBlock&lt; TOutput, TInputs &gt; Pages: 1 -->
<svg width="670pt" height="83pt"
 viewBox="0.00 0.00 670.00 83.00" xmlns="http://www.w3.org/2000/svg" xmlns:xlink="http://www.w3.org/1999/xlink">
<g id="graph0" class="graph" transform="scale(1 1) rotate(0) translate(4 79)">
<title>ls::blocks::std::FunctionBlock&lt; TOutput, TInputs &gt;</title>
<!-- Node1 -->
<g id="node1" class="node">
<title>Node1</title>
<g id="a_node1"><a xlink:title=" ">
<polygon fill="#bfbfbf" stroke="black" points="515,-22.5 515,-52.5 662,-52.5 662,-22.5 515,-22.5"/>
<text text-anchor="start" x="523" y="-40.5" font-family="Helvetica,sans-Serif" font-size="10.00">ls::blocks::std::Function</text>
<text text-anchor="middle" x="588.5" y="-29.5" font-family="Helvetica,sans-Serif" font-size="10.00">Block&lt; TOutput, TInputs &gt;</text>
</a>
</g>
</g>
<!-- Node2 -->
<g id="node2" class="node">
<title>Node2</title>
<g id="a_node2"><a xlink:href="classls_1_1blocks_1_1_block.html" target="_top" xlink:title=" ">
<polygon fill="none" stroke="black" points="333,-6 333,-69 479,-69 479,-6 333,-6"/>
<text text-anchor="start" x="341" y="-57" font-family="Helvetica,sans-Serif" font-size="10.00">ls::blocks::Block&lt;</text>
<text text-anchor="start" x="341" y="-46" font-family="Helvetica,sans-Serif" font-size="10.00"> ::std::tuple&lt; TInputs...</text>
<text text-anchor="start" x="341" y="-35" font-family="Helvetica,sans-Serif" font-size="10.00"> &gt;, ::std::tuple&lt; int &gt;,</text>
<text text-anchor="start" x="341" y="-24" font-family="Helvetica,sans-Serif" font-size="10.00"> ::std::tuple&lt;::std::function</text>
<text text-anchor="middle" x="406" y="-13" font-family="Helvetica,sans-Serif" font-size="10.00">&lt; int(TInputs...)&gt; &gt; &gt;</text>
</a>
</g>
</g>
<!-- Node2&#45;&gt;Node1 -->
<g id="edge1" class="edge">
<title>Node2&#45;&gt;Node1</title>
<path fill="none" stroke="midnightblue" d="M489.14,-37.5C497.74,-37.5 506.43,-37.5 514.91,-37.5"/>
<polygon fill="midnightblue" stroke="midnightblue" points="489.12,-34 479.12,-37.5 489.12,-41 489.12,-34"/>
</g>
<!-- Node3 -->
<g id="node3" class="node">
<title>Node3</title>
<g id="a_node3"><a xlink:href="classls_1_1blocks_1_1_block_base.html" target="_top" xlink:title=" ">
<polygon fill="none" stroke="black" points="157,-0.5 157,-74.5 297,-74.5 297,-0.5 157,-0.5"/>
<text text-anchor="start" x="165" y="-62.5" font-family="Helvetica,sans-Serif" font-size="10.00">ls::blocks::BlockBase</text>
<text text-anchor="start" x="165" y="-51.5" font-family="Helvetica,sans-Serif" font-size="10.00">&lt; Block&lt; ::std::tuple</text>
<text text-anchor="start" x="165" y="-40.5" font-family="Helvetica,sans-Serif" font-size="10.00">&lt; TInputs... &gt;, ::std</text>
<text text-anchor="start" x="165" y="-29.5" font-family="Helvetica,sans-Serif" font-size="10.00">::tuple&lt; int &gt;, ::std::</text>
<text text-anchor="start" x="165" y="-18.5" font-family="Helvetica,sans-Serif" font-size="10.00">tuple&lt;::std::function&lt; int</text>
<text text-anchor="middle" x="227" y="-7.5" font-family="Helvetica,sans-Serif" font-size="10.00">(TInputs...)&gt; &gt; &gt; &gt;</text>
</a>
</g>
</g>
<!-- Node3&#45;&gt;Node2 -->
<g id="edge2" class="edge">
<title>Node3&#45;&gt;Node2</title>
<path fill="none" stroke="midnightblue" d="M307.47,-37.5C315.95,-37.5 324.55,-37.5 332.94,-37.5"/>
<polygon fill="midnightblue" stroke="midnightblue" points="307.19,-34 297.19,-37.5 307.19,-41 307.19,-34"/>
</g>
<!-- Node4 -->
<g id="node4" class="node">
<title>Node4</title>
<g id="a_node4"><a xlink:href="classls_1_1blocks_1_1_block_proto.html" target="_top" xlink:title=" ">
<polygon fill="none" stroke="black" points="0,-28 0,-47 121,-47 121,-28 0,-28"/>
<text text-anchor="middle" x="60.5" y="-35" font-family="Helvetica,sans-Serif" font-size="10.00">ls::blocks::BlockProto</text>
</a>
</g>
</g>
<!-- Node4&#45;&gt;Node3 -->
<g id="edge3" class="edge">
<title>Node4&#45;&gt;Node3</title>
<path fill="none" stroke="midnightblue" d="M131.53,-37.5C139.96,-37.5 148.57,-37.5 156.98,-37.5"/>
<polygon fill="midnightblue" stroke="midnightblue" points="131.35,-34 121.35,-37.5 131.35,-41 131.35,-34"/>
</g>
</g>
</svg>
