<?xml version="1.0" encoding="UTF-8" standalone="no"?>
<!DOCTYPE svg PUBLIC "-//W3C//DTD SVG 1.1//EN"
 "http://www.w3.org/Graphics/SVG/1.1/DTD/svg11.dtd">
<!-- Generated by graphviz version 2.43.0 (0)
 -->
<!-- Title: ls::systems::DiscreteSystem&lt; StateSpace&lt; TScalar, TStateDim, TInputDim, TOutputDim &gt; &gt; Pages: 1 -->
<svg width="199pt" height="196pt"
 viewBox="0.00 0.00 199.00 196.00" xmlns="http://www.w3.org/2000/svg" xmlns:xlink="http://www.w3.org/1999/xlink">
<g id="graph0" class="graph" transform="scale(1 1) rotate(0) translate(4 192)">
<title>ls::systems::DiscreteSystem&lt; StateSpace&lt; TScalar, TStateDim, TInputDim, TOutputDim &gt; &gt;</title>
<!-- Node1 -->
<g id="node1" class="node">
<title>Node1</title>
<g id="a_node1"><a xlink:title=" ">
<polygon fill="#bfbfbf" stroke="black" points="0,-0.5 0,-41.5 191,-41.5 191,-0.5 0,-0.5"/>
<text text-anchor="start" x="8" y="-29.5" font-family="Helvetica,sans-Serif" font-size="10.00">ls::systems::DiscreteSystem</text>
<text text-anchor="start" x="8" y="-18.5" font-family="Helvetica,sans-Serif" font-size="10.00">&lt; StateSpace&lt; TScalar, TStateDim,</text>
<text text-anchor="middle" x="95.5" y="-7.5" font-family="Helvetica,sans-Serif" font-size="10.00"> TInputDim, TOutputDim &gt; &gt;</text>
</a>
</g>
</g>
<!-- Node2 -->
<g id="node2" class="node">
<title>Node2</title>
<g id="a_node2"><a xlink:href="classls_1_1systems_1_1_state_space.html" target="_top" xlink:title=" ">
<polygon fill="none" stroke="black" points="22,-89.5 22,-130.5 169,-130.5 169,-89.5 22,-89.5"/>
<text text-anchor="start" x="30" y="-118.5" font-family="Helvetica,sans-Serif" font-size="10.00">ls::systems::StateSpace</text>
<text text-anchor="start" x="30" y="-107.5" font-family="Helvetica,sans-Serif" font-size="10.00">&lt; TScalar, TStateDim,</text>
<text text-anchor="middle" x="95.5" y="-96.5" font-family="Helvetica,sans-Serif" font-size="10.00"> TInputDim, TOutputDim &gt;</text>
</a>
</g>
</g>
<!-- Node2&#45;&gt;Node1 -->
<g id="edge1" class="edge">
<title>Node2&#45;&gt;Node1</title>
<path fill="none" stroke="#9a32cd" stroke-dasharray="5,2" d="M95.5,-78.94C95.5,-66.6 95.5,-52.66 95.5,-41.66"/>
<polygon fill="#9a32cd" stroke="#9a32cd" points="92,-79.26 95.5,-89.26 99,-79.26 92,-79.26"/>
<text text-anchor="middle" x="115.5" y="-63" font-family="Helvetica,sans-Serif" font-size="10.00"> system</text>
</g>
<!-- Node3 -->
<g id="node3" class="node">
<title>Node3</title>
<g id="a_node3"><a xlink:href="classls_1_1systems_1_1_system_stateless.html" target="_top" xlink:title=" ">
<polygon fill="none" stroke="black" points="15.5,-168.5 15.5,-187.5 175.5,-187.5 175.5,-168.5 15.5,-168.5"/>
<text text-anchor="middle" x="95.5" y="-175.5" font-family="Helvetica,sans-Serif" font-size="10.00">ls::systems::SystemStateless</text>
</a>
</g>
</g>
<!-- Node3&#45;&gt;Node2 -->
<g id="edge2" class="edge">
<title>Node3&#45;&gt;Node2</title>
<path fill="none" stroke="midnightblue" d="M95.5,-158.25C95.5,-149.65 95.5,-139.45 95.5,-130.74"/>
<polygon fill="midnightblue" stroke="midnightblue" points="92,-158.37 95.5,-168.37 99,-158.37 92,-158.37"/>
</g>
</g>
</svg>
