<?xml version="1.0" encoding="UTF-8" standalone="no"?>
<!DOCTYPE svg PUBLIC "-//W3C//DTD SVG 1.1//EN"
 "http://www.w3.org/Graphics/SVG/1.1/DTD/svg11.dtd">
<!-- Generated by graphviz version 2.43.0 (0)
 -->
<!-- Title: ls::blocks::std::BufferBlock&lt; TInput, NSize &gt; Pages: 1 -->
<svg width="697pt" height="83pt"
 viewBox="0.00 0.00 697.00 83.00" xmlns="http://www.w3.org/2000/svg" xmlns:xlink="http://www.w3.org/1999/xlink">
<g id="graph0" class="graph" transform="scale(1 1) rotate(0) translate(4 79)">
<title>ls::blocks::std::BufferBlock&lt; TInput, NSize &gt;</title>
<!-- Node1 -->
<g id="node1" class="node">
<title>Node1</title>
<g id="a_node1"><a xlink:title=" ">
<polygon fill="#bfbfbf" stroke="black" points="543,-22.5 543,-52.5 689,-52.5 689,-22.5 543,-22.5"/>
<text text-anchor="start" x="551" y="-40.5" font-family="Helvetica,sans-Serif" font-size="10.00">ls::blocks::std::BufferBlock</text>
<text text-anchor="middle" x="616" y="-29.5" font-family="Helvetica,sans-Serif" font-size="10.00">&lt; TInput, NSize &gt;</text>
</a>
</g>
</g>
<!-- Node2 -->
<g id="node2" class="node">
<title>Node2</title>
<g id="a_node2"><a xlink:href="classls_1_1blocks_1_1_block.html" target="_top" xlink:title=" ">
<polygon fill="none" stroke="black" points="362,-0.5 362,-74.5 507,-74.5 507,-0.5 362,-0.5"/>
<text text-anchor="start" x="370" y="-62.5" font-family="Helvetica,sans-Serif" font-size="10.00">ls::blocks::Block&lt;</text>
<text text-anchor="start" x="370" y="-51.5" font-family="Helvetica,sans-Serif" font-size="10.00"> ::std::tuple&lt; TInput</text>
<text text-anchor="start" x="370" y="-40.5" font-family="Helvetica,sans-Serif" font-size="10.00"> &gt;, ls::aux::TemplateTools</text>
<text text-anchor="start" x="370" y="-29.5" font-family="Helvetica,sans-Serif" font-size="10.00">::repeat&lt; TInput, 2, ::std</text>
<text text-anchor="start" x="370" y="-18.5" font-family="Helvetica,sans-Serif" font-size="10.00">::tuple &gt;::type, BlockProto</text>
<text text-anchor="middle" x="434.5" y="-7.5" font-family="Helvetica,sans-Serif" font-size="10.00">::empty &gt;</text>
</a>
</g>
</g>
<!-- Node2&#45;&gt;Node1 -->
<g id="edge1" class="edge">
<title>Node2&#45;&gt;Node1</title>
<path fill="none" stroke="midnightblue" d="M517.47,-37.5C525.92,-37.5 534.47,-37.5 542.81,-37.5"/>
<polygon fill="midnightblue" stroke="midnightblue" points="517.22,-34 507.22,-37.5 517.22,-41 517.22,-34"/>
</g>
<!-- Node3 -->
<g id="node3" class="node">
<title>Node3</title>
<g id="a_node3"><a xlink:href="classls_1_1blocks_1_1_block_base.html" target="_top" xlink:title=" ">
<polygon fill="none" stroke="black" points="157,-0.5 157,-74.5 326,-74.5 326,-0.5 157,-0.5"/>
<text text-anchor="start" x="165" y="-62.5" font-family="Helvetica,sans-Serif" font-size="10.00">ls::blocks::BlockBase</text>
<text text-anchor="start" x="165" y="-51.5" font-family="Helvetica,sans-Serif" font-size="10.00">&lt; Block&lt; ::std::tuple</text>
<text text-anchor="start" x="165" y="-40.5" font-family="Helvetica,sans-Serif" font-size="10.00">&lt; TInput &gt;, ls::aux::Template</text>
<text text-anchor="start" x="165" y="-29.5" font-family="Helvetica,sans-Serif" font-size="10.00">Tools::repeat&lt; TInput, 2,</text>
<text text-anchor="start" x="165" y="-18.5" font-family="Helvetica,sans-Serif" font-size="10.00"> ::std::tuple &gt;::type, BlockProto</text>
<text text-anchor="middle" x="241.5" y="-7.5" font-family="Helvetica,sans-Serif" font-size="10.00">::empty &gt; &gt;</text>
</a>
</g>
</g>
<!-- Node3&#45;&gt;Node2 -->
<g id="edge2" class="edge">
<title>Node3&#45;&gt;Node2</title>
<path fill="none" stroke="midnightblue" d="M336.3,-37.5C344.85,-37.5 353.43,-37.5 361.75,-37.5"/>
<polygon fill="midnightblue" stroke="midnightblue" points="336.28,-34 326.28,-37.5 336.28,-41 336.28,-34"/>
</g>
<!-- Node4 -->
<g id="node4" class="node">
<title>Node4</title>
<g id="a_node4"><a xlink:href="classls_1_1blocks_1_1_block_proto.html" target="_top" xlink:title=" ">
<polygon fill="none" stroke="black" points="0,-28 0,-47 121,-47 121,-28 0,-28"/>
<text text-anchor="middle" x="60.5" y="-35" font-family="Helvetica,sans-Serif" font-size="10.00">ls::blocks::BlockProto</text>
</a>
</g>
</g>
<!-- Node4&#45;&gt;Node3 -->
<g id="edge3" class="edge">
<title>Node4&#45;&gt;Node3</title>
<path fill="none" stroke="midnightblue" d="M131.24,-37.5C139.66,-37.5 148.33,-37.5 156.92,-37.5"/>
<polygon fill="midnightblue" stroke="midnightblue" points="131.1,-34 121.1,-37.5 131.1,-41 131.1,-34"/>
</g>
</g>
</svg>
