<?xml version="1.0" encoding="UTF-8" standalone="no"?>
<!DOCTYPE svg PUBLIC "-//W3C//DTD SVG 1.1//EN"
 "http://www.w3.org/Graphics/SVG/1.1/DTD/svg11.dtd">
<!-- Generated by graphviz version 2.43.0 (0)
 -->
<!-- Title: ls::blocks::std::QuaternionBlock&lt; TScalar, QuaternionBlockParameter::Parametric &gt; Pages: 1 -->
<svg width="715pt" height="94pt"
 viewBox="0.00 0.00 715.00 94.00" xmlns="http://www.w3.org/2000/svg" xmlns:xlink="http://www.w3.org/1999/xlink">
<g id="graph0" class="graph" transform="scale(1 1) rotate(0) translate(4 90)">
<title>ls::blocks::std::QuaternionBlock&lt; TScalar, QuaternionBlockParameter::Parametric &gt;</title>
<!-- Node1 -->
<g id="node1" class="node">
<title>Node1</title>
<g id="a_node1"><a xlink:title=" ">
<polygon fill="#bfbfbf" stroke="black" points="529,-22.5 529,-63.5 707,-63.5 707,-22.5 529,-22.5"/>
<text text-anchor="start" x="537" y="-51.5" font-family="Helvetica,sans-Serif" font-size="10.00">ls::blocks::std::Quaternion</text>
<text text-anchor="start" x="537" y="-40.5" font-family="Helvetica,sans-Serif" font-size="10.00">Block&lt; TScalar, QuaternionBlock</text>
<text text-anchor="middle" x="618" y="-29.5" font-family="Helvetica,sans-Serif" font-size="10.00">Parameter::Parametric &gt;</text>
</a>
</g>
</g>
<!-- Node2 -->
<g id="node2" class="node">
<title>Node2</title>
<g id="a_node2"><a xlink:href="classls_1_1blocks_1_1_block.html" target="_top" xlink:title=" ">
<polygon fill="none" stroke="black" points="347,-0.5 347,-85.5 493,-85.5 493,-0.5 347,-0.5"/>
<text text-anchor="start" x="355" y="-73.5" font-family="Helvetica,sans-Serif" font-size="10.00">ls::blocks::Block&lt;</text>
<text text-anchor="start" x="355" y="-62.5" font-family="Helvetica,sans-Serif" font-size="10.00"> ::std::tuple&lt; TScalar,</text>
<text text-anchor="start" x="355" y="-51.5" font-family="Helvetica,sans-Serif" font-size="10.00"> TScalar, TScalar &gt;, </text>
<text text-anchor="start" x="355" y="-40.5" font-family="Helvetica,sans-Serif" font-size="10.00">::std::tuple&lt; TScalar,</text>
<text text-anchor="start" x="355" y="-29.5" font-family="Helvetica,sans-Serif" font-size="10.00"> TScalar, TScalar &gt;, ::std</text>
<text text-anchor="start" x="355" y="-18.5" font-family="Helvetica,sans-Serif" font-size="10.00">::tuple&lt; Eigen::Quaternion</text>
<text text-anchor="middle" x="420" y="-7.5" font-family="Helvetica,sans-Serif" font-size="10.00">&lt; TScalar &gt; &gt; &gt;</text>
</a>
</g>
</g>
<!-- Node2&#45;&gt;Node1 -->
<g id="edge1" class="edge">
<title>Node2&#45;&gt;Node1</title>
<path fill="none" stroke="midnightblue" d="M503.29,-43C511.69,-43 520.24,-43 528.7,-43"/>
<polygon fill="midnightblue" stroke="midnightblue" points="503.15,-39.5 493.15,-43 503.15,-46.5 503.15,-39.5"/>
</g>
<!-- Node3 -->
<g id="node3" class="node">
<title>Node3</title>
<g id="a_node3"><a xlink:href="classls_1_1blocks_1_1_block_base.html" target="_top" xlink:title=" ">
<polygon fill="none" stroke="black" points="157,-0.5 157,-85.5 311,-85.5 311,-0.5 157,-0.5"/>
<text text-anchor="start" x="165" y="-73.5" font-family="Helvetica,sans-Serif" font-size="10.00">ls::blocks::BlockBase</text>
<text text-anchor="start" x="165" y="-62.5" font-family="Helvetica,sans-Serif" font-size="10.00">&lt; Block&lt; ::std::tuple</text>
<text text-anchor="start" x="165" y="-51.5" font-family="Helvetica,sans-Serif" font-size="10.00">&lt; TScalar, TScalar, TScalar</text>
<text text-anchor="start" x="165" y="-40.5" font-family="Helvetica,sans-Serif" font-size="10.00"> &gt;, ::std::tuple&lt; TScalar,</text>
<text text-anchor="start" x="165" y="-29.5" font-family="Helvetica,sans-Serif" font-size="10.00"> TScalar, TScalar &gt;, ::std</text>
<text text-anchor="start" x="165" y="-18.5" font-family="Helvetica,sans-Serif" font-size="10.00">::tuple&lt; Eigen::Quaternion&lt;</text>
<text text-anchor="middle" x="234" y="-7.5" font-family="Helvetica,sans-Serif" font-size="10.00"> TScalar &gt; &gt; &gt; &gt;</text>
</a>
</g>
</g>
<!-- Node3&#45;&gt;Node2 -->
<g id="edge2" class="edge">
<title>Node3&#45;&gt;Node2</title>
<path fill="none" stroke="midnightblue" d="M321.44,-43C329.9,-43 338.43,-43 346.73,-43"/>
<polygon fill="midnightblue" stroke="midnightblue" points="321.17,-39.5 311.17,-43 321.17,-46.5 321.17,-39.5"/>
</g>
<!-- Node4 -->
<g id="node4" class="node">
<title>Node4</title>
<g id="a_node4"><a xlink:href="classls_1_1blocks_1_1_block_proto.html" target="_top" xlink:title=" ">
<polygon fill="none" stroke="black" points="0,-33.5 0,-52.5 121,-52.5 121,-33.5 0,-33.5"/>
<text text-anchor="middle" x="60.5" y="-40.5" font-family="Helvetica,sans-Serif" font-size="10.00">ls::blocks::BlockProto</text>
</a>
</g>
</g>
<!-- Node4&#45;&gt;Node3 -->
<g id="edge3" class="edge">
<title>Node4&#45;&gt;Node3</title>
<path fill="none" stroke="midnightblue" d="M131.22,-43C139.71,-43 148.42,-43 156.99,-43"/>
<polygon fill="midnightblue" stroke="midnightblue" points="131,-39.5 121,-43 131,-46.5 131,-39.5"/>
</g>
</g>
</svg>
