<?xml version="1.0" encoding="UTF-8" standalone="no"?>
<!DOCTYPE svg PUBLIC "-//W3C//DTD SVG 1.1//EN"
 "http://www.w3.org/Graphics/SVG/1.1/DTD/svg11.dtd">
<!-- Generated by graphviz version 2.43.0 (0)
 -->
<!-- Title: ls::blocks::std::MuxBlock&lt; Eigen::Matrix&lt; TScalar, TRows, TCols &gt;, TOps &gt; Pages: 1 -->
<svg width="778pt" height="94pt"
 viewBox="0.00 0.00 778.00 94.00" xmlns="http://www.w3.org/2000/svg" xmlns:xlink="http://www.w3.org/1999/xlink">
<g id="graph0" class="graph" transform="scale(1 1) rotate(0) translate(4 90)">
<title>ls::blocks::std::MuxBlock&lt; Eigen::Matrix&lt; TScalar, TRows, TCols &gt;, TOps &gt;</title>
<!-- Node1 -->
<g id="node1" class="node">
<title>Node1</title>
<g id="a_node1"><a xlink:title=" ">
<polygon fill="#bfbfbf" stroke="black" points="627,-22.5 627,-63.5 770,-63.5 770,-22.5 627,-22.5"/>
<text text-anchor="start" x="635" y="-51.5" font-family="Helvetica,sans-Serif" font-size="10.00">ls::blocks::std::MuxBlock</text>
<text text-anchor="start" x="635" y="-40.5" font-family="Helvetica,sans-Serif" font-size="10.00">&lt; Eigen::Matrix&lt; TScalar,</text>
<text text-anchor="middle" x="698.5" y="-29.5" font-family="Helvetica,sans-Serif" font-size="10.00"> TRows, TCols &gt;, TOps &gt;</text>
</a>
</g>
</g>
<!-- Node2 -->
<g id="node2" class="node">
<title>Node2</title>
<g id="a_node2"><a xlink:href="classls_1_1blocks_1_1_block.html" target="_top" xlink:title=" ">
<polygon fill="none" stroke="black" points="370,-0.5 370,-85.5 591,-85.5 591,-0.5 370,-0.5"/>
<text text-anchor="start" x="378" y="-73.5" font-family="Helvetica,sans-Serif" font-size="10.00">ls::blocks::Block&lt;</text>
<text text-anchor="start" x="378" y="-62.5" font-family="Helvetica,sans-Serif" font-size="10.00"> ls::aux::TemplateTools</text>
<text text-anchor="start" x="378" y="-51.5" font-family="Helvetica,sans-Serif" font-size="10.00">::repeat&lt; TScalar, TRows</text>
<text text-anchor="start" x="378" y="-40.5" font-family="Helvetica,sans-Serif" font-size="10.00"> *TCols, ::std::tuple &gt;::</text>
<text text-anchor="start" x="378" y="-29.5" font-family="Helvetica,sans-Serif" font-size="10.00">type, ::std::tuple&lt; Eigen</text>
<text text-anchor="start" x="378" y="-18.5" font-family="Helvetica,sans-Serif" font-size="10.00">::Matrix&lt; TScalar, TRows, TCols</text>
<text text-anchor="middle" x="480.5" y="-7.5" font-family="Helvetica,sans-Serif" font-size="10.00"> &gt; &gt;, ::std::tuple&lt; MuxBlockOperator &gt; &gt;</text>
</a>
</g>
</g>
<!-- Node2&#45;&gt;Node1 -->
<g id="edge1" class="edge">
<title>Node2&#45;&gt;Node1</title>
<path fill="none" stroke="midnightblue" d="M601.28,-43C609.94,-43 618.5,-43 626.73,-43"/>
<polygon fill="midnightblue" stroke="midnightblue" points="601.08,-39.5 591.08,-43 601.08,-46.5 601.08,-39.5"/>
</g>
<!-- Node3 -->
<g id="node3" class="node">
<title>Node3</title>
<g id="a_node3"><a xlink:href="classls_1_1blocks_1_1_block_base.html" target="_top" xlink:title=" ">
<polygon fill="none" stroke="black" points="157,-0.5 157,-85.5 334,-85.5 334,-0.5 157,-0.5"/>
<text text-anchor="start" x="165" y="-73.5" font-family="Helvetica,sans-Serif" font-size="10.00">ls::blocks::BlockBase</text>
<text text-anchor="start" x="165" y="-62.5" font-family="Helvetica,sans-Serif" font-size="10.00">&lt; Block&lt; ls::aux::TemplateTools</text>
<text text-anchor="start" x="165" y="-51.5" font-family="Helvetica,sans-Serif" font-size="10.00">::repeat&lt; TScalar, TRows *TCols,</text>
<text text-anchor="start" x="165" y="-40.5" font-family="Helvetica,sans-Serif" font-size="10.00"> ::std::tuple &gt;::type, ::std::</text>
<text text-anchor="start" x="165" y="-29.5" font-family="Helvetica,sans-Serif" font-size="10.00">tuple&lt; Eigen::Matrix&lt; TScalar,</text>
<text text-anchor="start" x="165" y="-18.5" font-family="Helvetica,sans-Serif" font-size="10.00"> TRows, TCols &gt; &gt;, ::std::tuple</text>
<text text-anchor="middle" x="245.5" y="-7.5" font-family="Helvetica,sans-Serif" font-size="10.00">&lt; MuxBlockOperator &gt; &gt; &gt;</text>
</a>
</g>
</g>
<!-- Node3&#45;&gt;Node2 -->
<g id="edge2" class="edge">
<title>Node3&#45;&gt;Node2</title>
<path fill="none" stroke="midnightblue" d="M344.41,-43C352.8,-43 361.33,-43 369.8,-43"/>
<polygon fill="midnightblue" stroke="midnightblue" points="344.26,-39.5 334.26,-43 344.26,-46.5 344.26,-39.5"/>
</g>
<!-- Node4 -->
<g id="node4" class="node">
<title>Node4</title>
<g id="a_node4"><a xlink:href="classls_1_1blocks_1_1_block_proto.html" target="_top" xlink:title=" ">
<polygon fill="none" stroke="black" points="0,-33.5 0,-52.5 121,-52.5 121,-33.5 0,-33.5"/>
<text text-anchor="middle" x="60.5" y="-40.5" font-family="Helvetica,sans-Serif" font-size="10.00">ls::blocks::BlockProto</text>
</a>
</g>
</g>
<!-- Node4&#45;&gt;Node3 -->
<g id="edge3" class="edge">
<title>Node4&#45;&gt;Node3</title>
<path fill="none" stroke="midnightblue" d="M131.19,-43C139.54,-43 148.13,-43 156.69,-43"/>
<polygon fill="midnightblue" stroke="midnightblue" points="131.17,-39.5 121.17,-43 131.17,-46.5 131.17,-39.5"/>
</g>
</g>
</svg>
