<?xml version="1.0" encoding="UTF-8" standalone="no"?>
<!DOCTYPE svg PUBLIC "-//W3C//DTD SVG 1.1//EN"
 "http://www.w3.org/Graphics/SVG/1.1/DTD/svg11.dtd">
<!-- Generated by graphviz version 2.43.0 (0)
 -->
<!-- Title: ls::control::ModelPredictiveControl&lt; THorizonLength, TScalar, TStateDim, TInputDim, TOutputDim &gt; Pages: 1 -->
<svg width="579pt" height="61pt"
 viewBox="0.00 0.00 579.00 61.00" xmlns="http://www.w3.org/2000/svg" xmlns:xlink="http://www.w3.org/1999/xlink">
<g id="graph0" class="graph" transform="scale(1 1) rotate(0) translate(4 57)">
<title>ls::control::ModelPredictiveControl&lt; THorizonLength, TScalar, TStateDim, TInputDim, TOutputDim &gt;</title>
<!-- Node1 -->
<g id="node1" class="node">
<title>Node1</title>
<g id="a_node1"><a xlink:title=" ">
<polygon fill="#bfbfbf" stroke="black" points="398,-0.5 398,-52.5 571,-52.5 571,-0.5 398,-0.5"/>
<text text-anchor="start" x="406" y="-40.5" font-family="Helvetica,sans-Serif" font-size="10.00">ls::control::ModelPredictive</text>
<text text-anchor="start" x="406" y="-29.5" font-family="Helvetica,sans-Serif" font-size="10.00">Control&lt; THorizonLength,</text>
<text text-anchor="start" x="406" y="-18.5" font-family="Helvetica,sans-Serif" font-size="10.00"> TScalar, TStateDim, TInputDim,</text>
<text text-anchor="middle" x="484.5" y="-7.5" font-family="Helvetica,sans-Serif" font-size="10.00"> TOutputDim &gt;</text>
</a>
</g>
</g>
<!-- Node2 -->
<g id="node2" class="node">
<title>Node2</title>
<g id="a_node2"><a xlink:href="classls_1_1systems_1_1_state_space.html" target="_top" xlink:title=" ">
<polygon fill="none" stroke="black" points="197,-0.5 197,-52.5 343,-52.5 343,-0.5 197,-0.5"/>
<text text-anchor="start" x="205" y="-40.5" font-family="Helvetica,sans-Serif" font-size="10.00">ls::systems::StateSpace</text>
<text text-anchor="start" x="205" y="-29.5" font-family="Helvetica,sans-Serif" font-size="10.00">&lt; double, Eigen::Dynamic,</text>
<text text-anchor="start" x="205" y="-18.5" font-family="Helvetica,sans-Serif" font-size="10.00"> Eigen::Dynamic, Eigen::</text>
<text text-anchor="middle" x="270" y="-7.5" font-family="Helvetica,sans-Serif" font-size="10.00">Dynamic &gt;</text>
</a>
</g>
</g>
<!-- Node2&#45;&gt;Node1 -->
<g id="edge1" class="edge">
<title>Node2&#45;&gt;Node1</title>
<path fill="none" stroke="#9a32cd" stroke-dasharray="5,2" d="M353.25,-26.5C367.88,-26.5 383.16,-26.5 397.88,-26.5"/>
<polygon fill="#9a32cd" stroke="#9a32cd" points="353.24,-23 343.24,-26.5 353.24,-30 353.24,-23"/>
<text text-anchor="middle" x="370.5" y="-29.5" font-family="Helvetica,sans-Serif" font-size="10.00"> ss_</text>
</g>
<!-- Node3 -->
<g id="node3" class="node">
<title>Node3</title>
<g id="a_node3"><a xlink:href="classls_1_1systems_1_1_system_stateless.html" target="_top" xlink:title=" ">
<polygon fill="none" stroke="black" points="0,-17 0,-36 160,-36 160,-17 0,-17"/>
<text text-anchor="middle" x="80" y="-24" font-family="Helvetica,sans-Serif" font-size="10.00">ls::systems::SystemStateless</text>
</a>
</g>
</g>
<!-- Node3&#45;&gt;Node2 -->
<g id="edge2" class="edge">
<title>Node3&#45;&gt;Node2</title>
<path fill="none" stroke="midnightblue" d="M170.2,-26.5C179.11,-26.5 188.08,-26.5 196.79,-26.5"/>
<polygon fill="midnightblue" stroke="midnightblue" points="170.18,-23 160.18,-26.5 170.18,-30 170.18,-23"/>
</g>
</g>
</svg>
