<?xml version="1.0" encoding="UTF-8" standalone="no"?>
<!DOCTYPE svg PUBLIC "-//W3C//DTD SVG 1.1//EN"
 "http://www.w3.org/Graphics/SVG/1.1/DTD/svg11.dtd">
<!-- Generated by graphviz version 2.43.0 (0)
 -->
<!-- Title: ls::blocks::std::DiscreteStateSpaceBlock&lt; TScalar, TFeedthroughOps, NState, NInput, NOutput &gt; Pages: 1 -->
<svg width="701pt" height="61pt"
 viewBox="0.00 0.00 701.00 61.00" xmlns="http://www.w3.org/2000/svg" xmlns:xlink="http://www.w3.org/1999/xlink">
<g id="graph0" class="graph" transform="scale(1 1) rotate(0) translate(4 57)">
<title>ls::blocks::std::DiscreteStateSpaceBlock&lt; TScalar, TFeedthroughOps, NState, NInput, NOutput &gt;</title>
<!-- Node1 -->
<g id="node1" class="node">
<title>Node1</title>
<g id="a_node1"><a xlink:title=" ">
<polygon fill="#bfbfbf" stroke="black" points="544,-0.5 544,-52.5 693,-52.5 693,-0.5 544,-0.5"/>
<text text-anchor="start" x="552" y="-40.5" font-family="Helvetica,sans-Serif" font-size="10.00">ls::blocks::std::Discrete</text>
<text text-anchor="start" x="552" y="-29.5" font-family="Helvetica,sans-Serif" font-size="10.00">StateSpaceBlock&lt; TScalar,</text>
<text text-anchor="start" x="552" y="-18.5" font-family="Helvetica,sans-Serif" font-size="10.00"> TFeedthroughOps, NState,</text>
<text text-anchor="middle" x="618.5" y="-7.5" font-family="Helvetica,sans-Serif" font-size="10.00"> NInput, NOutput &gt;</text>
</a>
</g>
</g>
<!-- Node2 -->
<g id="node2" class="node">
<title>Node2</title>
<g id="a_node2"><a xlink:href="classls_1_1blocks_1_1_block.html" target="_top" xlink:title=" ">
<polygon fill="none" stroke="black" points="340,-0.5 340,-52.5 508,-52.5 508,-0.5 340,-0.5"/>
<text text-anchor="start" x="348" y="-40.5" font-family="Helvetica,sans-Serif" font-size="10.00">ls::blocks::Block&lt;</text>
<text text-anchor="start" x="348" y="-29.5" font-family="Helvetica,sans-Serif" font-size="10.00"> BlockProto::empty,</text>
<text text-anchor="start" x="348" y="-18.5" font-family="Helvetica,sans-Serif" font-size="10.00"> BlockProto::empty, BlockProto</text>
<text text-anchor="middle" x="424" y="-7.5" font-family="Helvetica,sans-Serif" font-size="10.00">::empty &gt;</text>
</a>
</g>
</g>
<!-- Node2&#45;&gt;Node1 -->
<g id="edge1" class="edge">
<title>Node2&#45;&gt;Node1</title>
<path fill="none" stroke="midnightblue" d="M518.13,-26.5C526.75,-26.5 535.41,-26.5 543.83,-26.5"/>
<polygon fill="midnightblue" stroke="midnightblue" points="518.03,-23 508.03,-26.5 518.03,-30 518.03,-23"/>
</g>
<!-- Node3 -->
<g id="node3" class="node">
<title>Node3</title>
<g id="a_node3"><a xlink:href="classls_1_1blocks_1_1_block_base.html" target="_top" xlink:title=" ">
<polygon fill="none" stroke="black" points="157,-0.5 157,-52.5 304,-52.5 304,-0.5 157,-0.5"/>
<text text-anchor="start" x="165" y="-40.5" font-family="Helvetica,sans-Serif" font-size="10.00">ls::blocks::BlockBase</text>
<text text-anchor="start" x="165" y="-29.5" font-family="Helvetica,sans-Serif" font-size="10.00">&lt; Block&lt; BlockProto::</text>
<text text-anchor="start" x="165" y="-18.5" font-family="Helvetica,sans-Serif" font-size="10.00">empty, BlockProto::empty,</text>
<text text-anchor="middle" x="230.5" y="-7.5" font-family="Helvetica,sans-Serif" font-size="10.00"> BlockProto::empty &gt; &gt;</text>
</a>
</g>
</g>
<!-- Node3&#45;&gt;Node2 -->
<g id="edge2" class="edge">
<title>Node3&#45;&gt;Node2</title>
<path fill="none" stroke="midnightblue" d="M314.37,-26.5C322.8,-26.5 331.36,-26.5 339.79,-26.5"/>
<polygon fill="midnightblue" stroke="midnightblue" points="314.17,-23 304.17,-26.5 314.17,-30 314.17,-23"/>
</g>
<!-- Node4 -->
<g id="node4" class="node">
<title>Node4</title>
<g id="a_node4"><a xlink:href="classls_1_1blocks_1_1_block_proto.html" target="_top" xlink:title=" ">
<polygon fill="none" stroke="black" points="0,-17 0,-36 121,-36 121,-17 0,-17"/>
<text text-anchor="middle" x="60.5" y="-24" font-family="Helvetica,sans-Serif" font-size="10.00">ls::blocks::BlockProto</text>
</a>
</g>
</g>
<!-- Node4&#45;&gt;Node3 -->
<g id="edge3" class="edge">
<title>Node4&#45;&gt;Node3</title>
<path fill="none" stroke="midnightblue" d="M131.32,-26.5C139.72,-26.5 148.31,-26.5 156.75,-26.5"/>
<polygon fill="midnightblue" stroke="midnightblue" points="131.2,-23 121.2,-26.5 131.2,-30 131.2,-23"/>
</g>
</g>
</svg>
