<?xml version="1.0" encoding="UTF-8" standalone="no"?>
<!DOCTYPE svg PUBLIC "-//W3C//DTD SVG 1.1//EN"
 "http://www.w3.org/Graphics/SVG/1.1/DTD/svg11.dtd">
<!-- Generated by graphviz version 2.43.0 (0)
 -->
<!-- Title: ls::blocks::std::SwitchBlock&lt; TType, SwitchBlockParameter::AdditionalInput &gt; Pages: 1 -->
<svg width="701pt" height="72pt"
 viewBox="0.00 0.00 701.00 72.00" xmlns="http://www.w3.org/2000/svg" xmlns:xlink="http://www.w3.org/1999/xlink">
<g id="graph0" class="graph" transform="scale(1 1) rotate(0) translate(4 68)">
<title>ls::blocks::std::SwitchBlock&lt; TType, SwitchBlockParameter::AdditionalInput &gt;</title>
<!-- Node1 -->
<g id="node1" class="node">
<title>Node1</title>
<g id="a_node1"><a xlink:title=" ">
<polygon fill="#bfbfbf" stroke="black" points="521,-11.5 521,-52.5 693,-52.5 693,-11.5 521,-11.5"/>
<text text-anchor="start" x="529" y="-40.5" font-family="Helvetica,sans-Serif" font-size="10.00">ls::blocks::std::SwitchBlock</text>
<text text-anchor="start" x="529" y="-29.5" font-family="Helvetica,sans-Serif" font-size="10.00">&lt; TType, SwitchBlockParameter</text>
<text text-anchor="middle" x="607" y="-18.5" font-family="Helvetica,sans-Serif" font-size="10.00">::AdditionalInput &gt;</text>
</a>
</g>
</g>
<!-- Node2 -->
<g id="node2" class="node">
<title>Node2</title>
<g id="a_node2"><a xlink:href="classls_1_1blocks_1_1_block.html" target="_top" xlink:title=" ">
<polygon fill="none" stroke="black" points="328,-0.5 328,-63.5 485,-63.5 485,-0.5 328,-0.5"/>
<text text-anchor="start" x="336" y="-51.5" font-family="Helvetica,sans-Serif" font-size="10.00">ls::blocks::Block&lt;</text>
<text text-anchor="start" x="336" y="-40.5" font-family="Helvetica,sans-Serif" font-size="10.00"> ::std::tuple&lt; TType,</text>
<text text-anchor="start" x="336" y="-29.5" font-family="Helvetica,sans-Serif" font-size="10.00"> TType, bool &gt;, ::std</text>
<text text-anchor="start" x="336" y="-18.5" font-family="Helvetica,sans-Serif" font-size="10.00">::tuple&lt; TType &gt;, BlockProto</text>
<text text-anchor="middle" x="406.5" y="-7.5" font-family="Helvetica,sans-Serif" font-size="10.00">::empty &gt;</text>
</a>
</g>
</g>
<!-- Node2&#45;&gt;Node1 -->
<g id="edge1" class="edge">
<title>Node2&#45;&gt;Node1</title>
<path fill="none" stroke="midnightblue" d="M495.37,-32C503.85,-32 512.45,-32 520.9,-32"/>
<polygon fill="midnightblue" stroke="midnightblue" points="495.1,-28.5 485.1,-32 495.1,-35.5 495.1,-28.5"/>
</g>
<!-- Node3 -->
<g id="node3" class="node">
<title>Node3</title>
<g id="a_node3"><a xlink:href="classls_1_1blocks_1_1_block_base.html" target="_top" xlink:title=" ">
<polygon fill="none" stroke="black" points="157,-0.5 157,-63.5 292,-63.5 292,-0.5 157,-0.5"/>
<text text-anchor="start" x="165" y="-51.5" font-family="Helvetica,sans-Serif" font-size="10.00">ls::blocks::BlockBase</text>
<text text-anchor="start" x="165" y="-40.5" font-family="Helvetica,sans-Serif" font-size="10.00">&lt; Block&lt; ::std::tuple</text>
<text text-anchor="start" x="165" y="-29.5" font-family="Helvetica,sans-Serif" font-size="10.00">&lt; TType, TType, bool &gt;</text>
<text text-anchor="start" x="165" y="-18.5" font-family="Helvetica,sans-Serif" font-size="10.00">, ::std::tuple&lt; TType &gt;</text>
<text text-anchor="middle" x="224.5" y="-7.5" font-family="Helvetica,sans-Serif" font-size="10.00">, BlockProto::empty &gt; &gt;</text>
</a>
</g>
</g>
<!-- Node3&#45;&gt;Node2 -->
<g id="edge2" class="edge">
<title>Node3&#45;&gt;Node2</title>
<path fill="none" stroke="midnightblue" d="M302.21,-32C310.65,-32 319.25,-32 327.7,-32"/>
<polygon fill="midnightblue" stroke="midnightblue" points="302.01,-28.5 292.01,-32 302.01,-35.5 302.01,-28.5"/>
</g>
<!-- Node4 -->
<g id="node4" class="node">
<title>Node4</title>
<g id="a_node4"><a xlink:href="classls_1_1blocks_1_1_block_proto.html" target="_top" xlink:title=" ">
<polygon fill="none" stroke="black" points="0,-22.5 0,-41.5 121,-41.5 121,-22.5 0,-22.5"/>
<text text-anchor="middle" x="60.5" y="-29.5" font-family="Helvetica,sans-Serif" font-size="10.00">ls::blocks::BlockProto</text>
</a>
</g>
</g>
<!-- Node4&#45;&gt;Node3 -->
<g id="edge3" class="edge">
<title>Node4&#45;&gt;Node3</title>
<path fill="none" stroke="midnightblue" d="M131.5,-32C139.89,-32 148.44,-32 156.79,-32"/>
<polygon fill="midnightblue" stroke="midnightblue" points="131.36,-28.5 121.36,-32 131.36,-35.5 131.36,-28.5"/>
</g>
</g>
</svg>
