<?xml version="1.0" encoding="UTF-8" standalone="no"?>
<!DOCTYPE svg PUBLIC "-//W3C//DTD SVG 1.1//EN"
 "http://www.w3.org/Graphics/SVG/1.1/DTD/svg11.dtd">
<!-- Generated by graphviz version 2.43.0 (0)
 -->
<!-- Title: ls::blocks::Block&lt; ::std::tuple&lt; TInputs... &gt;, ::std::tuple&lt; TOutputs... &gt;, ::std::tuple&lt; TParameters... &gt; &gt; Pages: 1 -->
<svg width="578pt" height="72pt"
 viewBox="0.00 0.00 578.00 72.00" xmlns="http://www.w3.org/2000/svg" xmlns:xlink="http://www.w3.org/1999/xlink">
<g id="graph0" class="graph" transform="scale(1 1) rotate(0) translate(4 68)">
<title>ls::blocks::Block&lt; ::std::tuple&lt; TInputs... &gt;, ::std::tuple&lt; TOutputs... &gt;, ::std::tuple&lt; TParameters... &gt; &gt;</title>
<!-- Node1 -->
<g id="node1" class="node">
<title>Node1</title>
<g id="a_node1"><a xlink:title=" ">
<polygon fill="#bfbfbf" stroke="black" points="380,-6 380,-58 570,-58 570,-6 380,-6"/>
<text text-anchor="start" x="388" y="-46" font-family="Helvetica,sans-Serif" font-size="10.00">ls::blocks::Block&lt;</text>
<text text-anchor="start" x="388" y="-35" font-family="Helvetica,sans-Serif" font-size="10.00"> ::std::tuple&lt; TInputs...</text>
<text text-anchor="start" x="388" y="-24" font-family="Helvetica,sans-Serif" font-size="10.00"> &gt;, ::std::tuple&lt; TOutputs...</text>
<text text-anchor="middle" x="475" y="-13" font-family="Helvetica,sans-Serif" font-size="10.00"> &gt;, ::std::tuple&lt; TParameters... &gt; &gt;</text>
</a>
</g>
</g>
<!-- Node2 -->
<g id="node2" class="node">
<title>Node2</title>
<g id="a_node2"><a xlink:href="classls_1_1blocks_1_1_block_base.html" target="_top" xlink:title=" ">
<polygon fill="none" stroke="black" points="157,-0.5 157,-63.5 344,-63.5 344,-0.5 157,-0.5"/>
<text text-anchor="start" x="165" y="-51.5" font-family="Helvetica,sans-Serif" font-size="10.00">ls::blocks::BlockBase</text>
<text text-anchor="start" x="165" y="-40.5" font-family="Helvetica,sans-Serif" font-size="10.00">&lt; Block&lt; ::std::tuple</text>
<text text-anchor="start" x="165" y="-29.5" font-family="Helvetica,sans-Serif" font-size="10.00">&lt; TInputs... &gt;, ::std</text>
<text text-anchor="start" x="165" y="-18.5" font-family="Helvetica,sans-Serif" font-size="10.00">::tuple&lt; TOutputs... &gt;,</text>
<text text-anchor="middle" x="250.5" y="-7.5" font-family="Helvetica,sans-Serif" font-size="10.00"> ::std::tuple&lt; TParameters... &gt; &gt; &gt;</text>
</a>
</g>
</g>
<!-- Node2&#45;&gt;Node1 -->
<g id="edge1" class="edge">
<title>Node2&#45;&gt;Node1</title>
<path fill="none" stroke="midnightblue" d="M354.26,-32C362.83,-32 371.47,-32 379.97,-32"/>
<polygon fill="midnightblue" stroke="midnightblue" points="354.25,-28.5 344.25,-32 354.25,-35.5 354.25,-28.5"/>
</g>
<!-- Node3 -->
<g id="node3" class="node">
<title>Node3</title>
<g id="a_node3"><a xlink:href="classls_1_1blocks_1_1_block_proto.html" target="_top" xlink:title=" ">
<polygon fill="none" stroke="black" points="0,-22.5 0,-41.5 121,-41.5 121,-22.5 0,-22.5"/>
<text text-anchor="middle" x="60.5" y="-29.5" font-family="Helvetica,sans-Serif" font-size="10.00">ls::blocks::BlockProto</text>
</a>
</g>
</g>
<!-- Node3&#45;&gt;Node2 -->
<g id="edge2" class="edge">
<title>Node3&#45;&gt;Node2</title>
<path fill="none" stroke="midnightblue" d="M131.3,-32C139.68,-32 148.32,-32 156.96,-32"/>
<polygon fill="midnightblue" stroke="midnightblue" points="131.24,-28.5 121.24,-32 131.24,-35.5 131.24,-28.5"/>
</g>
</g>
</svg>
