<?xml version="1.0" encoding="UTF-8" standalone="no"?>
<!DOCTYPE svg PUBLIC "-//W3C//DTD SVG 1.1//EN"
 "http://www.w3.org/Graphics/SVG/1.1/DTD/svg11.dtd">
<!-- Generated by graphviz version 2.43.0 (0)
 -->
<!-- Title: ls::blocks::std::IntegratorBlock&lt; TInput, NHorizon, TScalar &gt; Pages: 1 -->
<svg width="700pt" height="116pt"
 viewBox="0.00 0.00 700.00 115.50" xmlns="http://www.w3.org/2000/svg" xmlns:xlink="http://www.w3.org/1999/xlink">
<g id="graph0" class="graph" transform="scale(1 1) rotate(0) translate(4 111.5)">
<title>ls::blocks::std::IntegratorBlock&lt; TInput, NHorizon, TScalar &gt;</title>
<!-- Node1 -->
<g id="node1" class="node">
<title>Node1</title>
<g id="a_node1"><a xlink:title=" ">
<polygon fill="#bfbfbf" stroke="black" points="552,-8 552,-49 692,-49 692,-8 552,-8"/>
<text text-anchor="start" x="560" y="-37" font-family="Helvetica,sans-Serif" font-size="10.00">ls::blocks::std::Integrator</text>
<text text-anchor="start" x="560" y="-26" font-family="Helvetica,sans-Serif" font-size="10.00">Block&lt; TInput, NHorizon,</text>
<text text-anchor="middle" x="622" y="-15" font-family="Helvetica,sans-Serif" font-size="10.00"> TScalar &gt;</text>
</a>
</g>
</g>
<!-- Node2 -->
<g id="node2" class="node">
<title>Node2</title>
<g id="a_node2"><a xlink:href="classls_1_1blocks_1_1_block.html" target="_top" xlink:title=" ">
<polygon fill="none" stroke="black" points="323,-49.5 323,-101.5 464,-101.5 464,-49.5 323,-49.5"/>
<text text-anchor="start" x="331" y="-89.5" font-family="Helvetica,sans-Serif" font-size="10.00">ls::blocks::Block&lt;</text>
<text text-anchor="start" x="331" y="-78.5" font-family="Helvetica,sans-Serif" font-size="10.00"> ::std::tuple&lt; TInput</text>
<text text-anchor="start" x="331" y="-67.5" font-family="Helvetica,sans-Serif" font-size="10.00"> &gt;, ::std::tuple&lt; TInput</text>
<text text-anchor="middle" x="393.5" y="-56.5" font-family="Helvetica,sans-Serif" font-size="10.00"> &gt;, ::std::tuple&lt; float &gt; &gt;</text>
</a>
</g>
</g>
<!-- Node2&#45;&gt;Node1 -->
<g id="edge1" class="edge">
<title>Node2&#45;&gt;Node1</title>
<path fill="none" stroke="midnightblue" d="M474.24,-58.95C499.55,-53.7 527.31,-47.94 551.81,-42.86"/>
<polygon fill="midnightblue" stroke="midnightblue" points="473.39,-55.56 464.31,-61.01 474.81,-62.41 473.39,-55.56"/>
</g>
<!-- Node3 -->
<g id="node3" class="node">
<title>Node3</title>
<g id="a_node3"><a xlink:href="classls_1_1blocks_1_1_block_base.html" target="_top" xlink:title=" ">
<polygon fill="none" stroke="black" points="158,-44 158,-107 286,-107 286,-44 158,-44"/>
<text text-anchor="start" x="166" y="-95" font-family="Helvetica,sans-Serif" font-size="10.00">ls::blocks::BlockBase</text>
<text text-anchor="start" x="166" y="-84" font-family="Helvetica,sans-Serif" font-size="10.00">&lt; Block&lt; ::std::tuple</text>
<text text-anchor="start" x="166" y="-73" font-family="Helvetica,sans-Serif" font-size="10.00">&lt; TInput &gt;, ::std::tuple</text>
<text text-anchor="start" x="166" y="-62" font-family="Helvetica,sans-Serif" font-size="10.00">&lt; TInput &gt;, ::std::tuple</text>
<text text-anchor="middle" x="222" y="-51" font-family="Helvetica,sans-Serif" font-size="10.00">&lt; float &gt; &gt; &gt;</text>
</a>
</g>
</g>
<!-- Node3&#45;&gt;Node2 -->
<g id="edge2" class="edge">
<title>Node3&#45;&gt;Node2</title>
<path fill="none" stroke="midnightblue" d="M296.32,-75.5C305.11,-75.5 314.05,-75.5 322.78,-75.5"/>
<polygon fill="midnightblue" stroke="midnightblue" points="296.12,-72 286.12,-75.5 296.12,-79 296.12,-72"/>
</g>
<!-- Node4 -->
<g id="node4" class="node">
<title>Node4</title>
<g id="a_node4"><a xlink:href="classls_1_1blocks_1_1_block_proto.html" target="_top" xlink:title=" ">
<polygon fill="none" stroke="black" points="0,-66 0,-85 121,-85 121,-66 0,-66"/>
<text text-anchor="middle" x="60.5" y="-73" font-family="Helvetica,sans-Serif" font-size="10.00">ls::blocks::BlockProto</text>
</a>
</g>
</g>
<!-- Node4&#45;&gt;Node3 -->
<g id="edge3" class="edge">
<title>Node4&#45;&gt;Node3</title>
<path fill="none" stroke="midnightblue" d="M131.54,-75.5C140.31,-75.5 149.23,-75.5 157.89,-75.5"/>
<polygon fill="midnightblue" stroke="midnightblue" points="131.35,-72 121.35,-75.5 131.35,-79 131.35,-72"/>
</g>
<!-- Node5 -->
<g id="node5" class="node">
<title>Node5</title>
<g id="a_node5"><a xlink:href="structls_1_1aux_1_1_array_stack.html" target="_top" xlink:title=" ">
<polygon fill="none" stroke="black" points="339.5,-0.5 339.5,-30.5 447.5,-30.5 447.5,-0.5 339.5,-0.5"/>
<text text-anchor="start" x="347.5" y="-18.5" font-family="Helvetica,sans-Serif" font-size="10.00">ls::aux::ArrayStack</text>
<text text-anchor="middle" x="393.5" y="-7.5" font-family="Helvetica,sans-Serif" font-size="10.00">&lt; TInput, 1+1 &gt;</text>
</a>
</g>
</g>
<!-- Node5&#45;&gt;Node1 -->
<g id="edge4" class="edge">
<title>Node5&#45;&gt;Node1</title>
<path fill="none" stroke="#9a32cd" stroke-dasharray="5,2" d="M457.72,-19.13C487.02,-20.81 521.92,-22.81 551.91,-24.53"/>
<polygon fill="#9a32cd" stroke="#9a32cd" points="457.79,-15.63 447.6,-18.55 457.39,-22.62 457.79,-15.63"/>
<text text-anchor="middle" x="508" y="-26.5" font-family="Helvetica,sans-Serif" font-size="10.00"> fifoStack_</text>
</g>
</g>
</svg>
