<?xml version="1.0" encoding="UTF-8" standalone="no"?>
<!DOCTYPE svg PUBLIC "-//W3C//DTD SVG 1.1//EN"
 "http://www.w3.org/Graphics/SVG/1.1/DTD/svg11.dtd">
<!-- Generated by graphviz version 2.43.0 (0)
 -->
<!-- Title: ls::blocks::std::DemuxBlock&lt; Eigen::Matrix&lt; TScalar, TRows, TCols &gt;, TOps &gt; Pages: 1 -->
<svg width="818pt" height="94pt"
 viewBox="0.00 0.00 818.00 94.00" xmlns="http://www.w3.org/2000/svg" xmlns:xlink="http://www.w3.org/1999/xlink">
<g id="graph0" class="graph" transform="scale(1 1) rotate(0) translate(4 90)">
<title>ls::blocks::std::DemuxBlock&lt; Eigen::Matrix&lt; TScalar, TRows, TCols &gt;, TOps &gt;</title>
<!-- Node1 -->
<g id="node1" class="node">
<title>Node1</title>
<g id="a_node1"><a xlink:title=" ">
<polygon fill="#bfbfbf" stroke="black" points="658,-22.5 658,-63.5 810,-63.5 810,-22.5 658,-22.5"/>
<text text-anchor="start" x="666" y="-51.5" font-family="Helvetica,sans-Serif" font-size="10.00">ls::blocks::std::DemuxBlock</text>
<text text-anchor="start" x="666" y="-40.5" font-family="Helvetica,sans-Serif" font-size="10.00">&lt; Eigen::Matrix&lt; TScalar,</text>
<text text-anchor="middle" x="734" y="-29.5" font-family="Helvetica,sans-Serif" font-size="10.00"> TRows, TCols &gt;, TOps &gt;</text>
</a>
</g>
</g>
<!-- Node2 -->
<g id="node2" class="node">
<title>Node2</title>
<g id="a_node2"><a xlink:href="classls_1_1blocks_1_1_block.html" target="_top" xlink:title=" ">
<polygon fill="none" stroke="black" points="445,-0.5 445,-85.5 622,-85.5 622,-0.5 445,-0.5"/>
<text text-anchor="start" x="453" y="-73.5" font-family="Helvetica,sans-Serif" font-size="10.00">ls::blocks::Block&lt;</text>
<text text-anchor="start" x="453" y="-62.5" font-family="Helvetica,sans-Serif" font-size="10.00"> ::std::tuple&lt; Eigen</text>
<text text-anchor="start" x="453" y="-51.5" font-family="Helvetica,sans-Serif" font-size="10.00">::Matrix&lt; TScalar, TRows,</text>
<text text-anchor="start" x="453" y="-40.5" font-family="Helvetica,sans-Serif" font-size="10.00"> TCols &gt; &gt;, aux::TemplateTools</text>
<text text-anchor="start" x="453" y="-29.5" font-family="Helvetica,sans-Serif" font-size="10.00">::repeat&lt; TScalar, TRows *TCols,</text>
<text text-anchor="start" x="453" y="-18.5" font-family="Helvetica,sans-Serif" font-size="10.00"> ::std::tuple &gt;::type, ::std::tuple</text>
<text text-anchor="middle" x="533.5" y="-7.5" font-family="Helvetica,sans-Serif" font-size="10.00">&lt; DemuxBlockOperator &gt; &gt;</text>
</a>
</g>
</g>
<!-- Node2&#45;&gt;Node1 -->
<g id="edge1" class="edge">
<title>Node2&#45;&gt;Node1</title>
<path fill="none" stroke="midnightblue" d="M632.26,-43C640.89,-43 649.55,-43 657.95,-43"/>
<polygon fill="midnightblue" stroke="midnightblue" points="632.14,-39.5 622.14,-43 632.14,-46.5 632.14,-39.5"/>
</g>
<!-- Node3 -->
<g id="node3" class="node">
<title>Node3</title>
<g id="a_node3"><a xlink:href="classls_1_1blocks_1_1_block_base.html" target="_top" xlink:title=" ">
<polygon fill="none" stroke="black" points="157,-0.5 157,-85.5 409,-85.5 409,-0.5 157,-0.5"/>
<text text-anchor="start" x="165" y="-73.5" font-family="Helvetica,sans-Serif" font-size="10.00">ls::blocks::BlockBase</text>
<text text-anchor="start" x="165" y="-62.5" font-family="Helvetica,sans-Serif" font-size="10.00">&lt; Block&lt; ::std::tuple</text>
<text text-anchor="start" x="165" y="-51.5" font-family="Helvetica,sans-Serif" font-size="10.00">&lt; Eigen::Matrix&lt; TScalar,</text>
<text text-anchor="start" x="165" y="-40.5" font-family="Helvetica,sans-Serif" font-size="10.00"> TRows, TCols &gt; &gt;, aux::</text>
<text text-anchor="start" x="165" y="-29.5" font-family="Helvetica,sans-Serif" font-size="10.00">TemplateTools::repeat&lt; TScalar,</text>
<text text-anchor="start" x="165" y="-18.5" font-family="Helvetica,sans-Serif" font-size="10.00"> TRows *TCols, ::std::tuple &gt;</text>
<text text-anchor="middle" x="283" y="-7.5" font-family="Helvetica,sans-Serif" font-size="10.00">::type, ::std::tuple&lt; DemuxBlockOperator &gt; &gt; &gt;</text>
</a>
</g>
</g>
<!-- Node3&#45;&gt;Node2 -->
<g id="edge2" class="edge">
<title>Node3&#45;&gt;Node2</title>
<path fill="none" stroke="midnightblue" d="M419.4,-43C427.96,-43 436.44,-43 444.69,-43"/>
<polygon fill="midnightblue" stroke="midnightblue" points="419.34,-39.5 409.34,-43 419.34,-46.5 419.34,-39.5"/>
</g>
<!-- Node4 -->
<g id="node4" class="node">
<title>Node4</title>
<g id="a_node4"><a xlink:href="classls_1_1blocks_1_1_block_proto.html" target="_top" xlink:title=" ">
<polygon fill="none" stroke="black" points="0,-33.5 0,-52.5 121,-52.5 121,-33.5 0,-33.5"/>
<text text-anchor="middle" x="60.5" y="-40.5" font-family="Helvetica,sans-Serif" font-size="10.00">ls::blocks::BlockProto</text>
</a>
</g>
</g>
<!-- Node4&#45;&gt;Node3 -->
<g id="edge3" class="edge">
<title>Node4&#45;&gt;Node3</title>
<path fill="none" stroke="midnightblue" d="M131.39,-43C139.61,-43 148.18,-43 156.88,-43"/>
<polygon fill="midnightblue" stroke="midnightblue" points="131.17,-39.5 121.17,-43 131.17,-46.5 131.17,-39.5"/>
</g>
</g>
</svg>
