<?xml version="1.0" encoding="UTF-8" standalone="no"?>
<!DOCTYPE svg PUBLIC "-//W3C//DTD SVG 1.1//EN"
 "http://www.w3.org/Graphics/SVG/1.1/DTD/svg11.dtd">
<!-- Generated by graphviz version 2.43.0 (0)
 -->
<!-- Title: Graphical Class Hierarchy Pages: 1 -->
<svg width="362pt" height="417pt"
 viewBox="0.00 0.00 362.00 417.00" xmlns="http://www.w3.org/2000/svg" xmlns:xlink="http://www.w3.org/1999/xlink">
<g id="graph0" class="graph" transform="scale(1 1) rotate(0) translate(4 413)">
<title>Graphical Class Hierarchy</title>
<!-- Node18 -->
<g id="node1" class="node">
<title>Node18</title>
<g id="a_node1"><a xlink:title=" ">
<polygon fill="none" stroke="#bfbfbf" points="0,-200.5 0,-219.5 63,-219.5 63,-200.5 0,-200.5"/>
<text text-anchor="middle" x="31.5" y="-207.5" font-family="Helvetica,sans-Serif" font-size="10.00">true_type</text>
</a>
</g>
</g>
<!-- Node0 -->
<g id="node2" class="node">
<title>Node0</title>
<g id="a_node2"><a xlink:href="struct_conjunction.html" target="_top" xlink:title=" ">
<polygon fill="none" stroke="black" points="175,-389.5 175,-408.5 278,-408.5 278,-389.5 175,-389.5"/>
<text text-anchor="middle" x="226.5" y="-396.5" font-family="Helvetica,sans-Serif" font-size="10.00">Conjunction&lt;... &gt;</text>
</a>
</g>
</g>
<!-- Node18&#45;&gt;Node0 -->
<g id="edge1" class="edge">
<title>Node18&#45;&gt;Node0</title>
<path fill="none" stroke="midnightblue" d="M34.02,-229.84C37.91,-265.96 51.61,-342.19 99,-380 120.09,-396.83 149.66,-401.96 174.9,-402.71"/>
<polygon fill="midnightblue" stroke="midnightblue" points="37.48,-229.26 33.06,-219.63 30.51,-229.91 37.48,-229.26"/>
</g>
<!-- Node20 -->
<g id="node3" class="node">
<title>Node20</title>
<g id="a_node3"><a xlink:href="structis__binop__able___3_01_t_00_01_u_00_01_bin_op_00_01void__t_3_01decltype_07std_1_1declval_3dbf74949c3d004b3a1e9d1c610010948.html" target="_top" xlink:title=" ">
<polygon fill="none" stroke="black" points="150.5,-307.5 150.5,-370.5 302.5,-370.5 302.5,-307.5 150.5,-307.5"/>
<text text-anchor="start" x="158.5" y="-358.5" font-family="Helvetica,sans-Serif" font-size="10.00">is_binop_able_&lt; T,</text>
<text text-anchor="start" x="158.5" y="-347.5" font-family="Helvetica,sans-Serif" font-size="10.00"> U, BinOp, void_t&lt; decltype</text>
<text text-anchor="start" x="158.5" y="-336.5" font-family="Helvetica,sans-Serif" font-size="10.00">(std::declval&lt; BinOp &gt;()</text>
<text text-anchor="start" x="158.5" y="-325.5" font-family="Helvetica,sans-Serif" font-size="10.00">(std::declval&lt; T &gt;(), std</text>
<text text-anchor="middle" x="226.5" y="-314.5" font-family="Helvetica,sans-Serif" font-size="10.00">::declval&lt; U &gt;()))&gt; &gt;</text>
</a>
</g>
</g>
<!-- Node18&#45;&gt;Node20 -->
<g id="edge2" class="edge">
<title>Node18&#45;&gt;Node20</title>
<path fill="none" stroke="midnightblue" d="M42.13,-228.78C53.26,-248.7 73.37,-279.76 99,-298 114.24,-308.84 132.49,-316.93 150.34,-322.92"/>
<polygon fill="midnightblue" stroke="midnightblue" points="45.09,-226.9 37.27,-219.75 38.93,-230.22 45.09,-226.9"/>
</g>
<!-- Node21 -->
<g id="node4" class="node">
<title>Node21</title>
<g id="a_node4"><a xlink:href="structls_1_1aux_1_1_template_traits_1_1_binary_operators_1_1is_binopable_impl_3_01_t_00_01_u_00_f0fc712b22abee6323ee4c89c80bed00.html" target="_top" xlink:title=" ">
<polygon fill="none" stroke="black" points="142.5,-214 142.5,-288 310.5,-288 310.5,-214 142.5,-214"/>
<text text-anchor="start" x="150.5" y="-276" font-family="Helvetica,sans-Serif" font-size="10.00">ls::aux::TemplateTraits</text>
<text text-anchor="start" x="150.5" y="-265" font-family="Helvetica,sans-Serif" font-size="10.00">::BinaryOperators::isBinopable</text>
<text text-anchor="start" x="150.5" y="-254" font-family="Helvetica,sans-Serif" font-size="10.00">Impl&lt; T, U, BinOp, void_t&lt;</text>
<text text-anchor="start" x="150.5" y="-243" font-family="Helvetica,sans-Serif" font-size="10.00"> decltype(::std::declval&lt; BinOp</text>
<text text-anchor="start" x="150.5" y="-232" font-family="Helvetica,sans-Serif" font-size="10.00"> &gt;()(::std::declval&lt; T &gt;(), ::std</text>
<text text-anchor="middle" x="226.5" y="-221" font-family="Helvetica,sans-Serif" font-size="10.00">::declval&lt; U &gt;()))&gt; &gt;</text>
</a>
</g>
</g>
<!-- Node18&#45;&gt;Node21 -->
<g id="edge3" class="edge">
<title>Node18&#45;&gt;Node21</title>
<path fill="none" stroke="midnightblue" d="M73.11,-218.63C93.21,-222.9 118.24,-228.21 142.17,-233.3"/>
<polygon fill="midnightblue" stroke="midnightblue" points="73.59,-215.15 63.08,-216.5 72.14,-222 73.59,-215.15"/>
</g>
<!-- Node22 -->
<g id="node5" class="node">
<title>Node22</title>
<g id="a_node5"><a xlink:href="structls_1_1aux_1_1_template_traits_1_1_binary_operators_1_1parse_matrix_like_3_01_t_wrapper_3_0d1a4674de72f5311aac75a4c37490c9a.html" target="_top" xlink:title="Extracts data from matrix&#45;like types.">
<polygon fill="none" stroke="black" points="135,-143 135,-195 318,-195 318,-143 135,-143"/>
<text text-anchor="start" x="143" y="-183" font-family="Helvetica,sans-Serif" font-size="10.00">ls::aux::TemplateTraits</text>
<text text-anchor="start" x="143" y="-172" font-family="Helvetica,sans-Serif" font-size="10.00">::BinaryOperators::parseMatrix</text>
<text text-anchor="start" x="143" y="-161" font-family="Helvetica,sans-Serif" font-size="10.00">Like&lt; TWrapper&lt; TScalar, TRows,</text>
<text text-anchor="middle" x="226.5" y="-150" font-family="Helvetica,sans-Serif" font-size="10.00"> TCols, TOtherParams... &gt; &gt;</text>
</a>
</g>
</g>
<!-- Node18&#45;&gt;Node22 -->
<g id="edge4" class="edge">
<title>Node18&#45;&gt;Node22</title>
<path fill="none" stroke="midnightblue" d="M72.92,-201.41C90.94,-197.58 112.95,-192.91 134.59,-188.31"/>
<polygon fill="midnightblue" stroke="midnightblue" points="72.14,-198 63.08,-203.5 73.59,-204.85 72.14,-198"/>
</g>
<!-- Node23 -->
<g id="node6" class="node">
<title>Node23</title>
<g id="a_node6"><a xlink:href="structls_1_1aux_1_1_template_traits_1_1_binary_operators_1_1sanitize_type_binop_3_01_t_wrapper_3faa0e8e2a6a5cb31918185116d67da5f.html" target="_top" xlink:title="Sanitizes lazy binary operation output.">
<polygon fill="none" stroke="black" points="99,-60.5 99,-123.5 354,-123.5 354,-60.5 99,-60.5"/>
<text text-anchor="start" x="107" y="-111.5" font-family="Helvetica,sans-Serif" font-size="10.00">ls::aux::TemplateTraits</text>
<text text-anchor="start" x="107" y="-100.5" font-family="Helvetica,sans-Serif" font-size="10.00">::BinaryOperators::sanitizeType</text>
<text text-anchor="start" x="107" y="-89.5" font-family="Helvetica,sans-Serif" font-size="10.00">Binop&lt; TWrapper&lt; TWrapperChild1</text>
<text text-anchor="start" x="107" y="-78.5" font-family="Helvetica,sans-Serif" font-size="10.00">&lt; TScalar, TInts... &gt;, TWrapperChild2</text>
<text text-anchor="middle" x="226.5" y="-67.5" font-family="Helvetica,sans-Serif" font-size="10.00">&lt; UScalar, UInts... &gt;, TWrapperInts... &gt;, BinOp &gt;</text>
</a>
</g>
</g>
<!-- Node18&#45;&gt;Node23 -->
<g id="edge5" class="edge">
<title>Node18&#45;&gt;Node23</title>
<path fill="none" stroke="midnightblue" d="M44.18,-191.78C56.06,-174.61 75.96,-149.3 99,-134 104.69,-130.22 110.74,-126.76 117.01,-123.59"/>
<polygon fill="midnightblue" stroke="midnightblue" points="41.09,-190.11 38.44,-200.37 46.91,-194 41.09,-190.11"/>
</g>
<!-- Node24 -->
<g id="node7" class="node">
<title>Node24</title>
<g id="a_node7"><a xlink:href="structls_1_1aux_1_1_template_traits_1_1is_instance_3_01_u_3_01_t_8_8_8_01_4_00_01_u_01_4.html" target="_top" xlink:title=" ">
<polygon fill="none" stroke="black" points="163.5,-0.5 163.5,-41.5 289.5,-41.5 289.5,-0.5 163.5,-0.5"/>
<text text-anchor="start" x="171.5" y="-29.5" font-family="Helvetica,sans-Serif" font-size="10.00">ls::aux::TemplateTraits</text>
<text text-anchor="start" x="171.5" y="-18.5" font-family="Helvetica,sans-Serif" font-size="10.00">::isInstance&lt; U&lt; T...</text>
<text text-anchor="middle" x="226.5" y="-7.5" font-family="Helvetica,sans-Serif" font-size="10.00"> &gt;, U &gt;</text>
</a>
</g>
</g>
<!-- Node18&#45;&gt;Node24 -->
<g id="edge6" class="edge">
<title>Node18&#45;&gt;Node24</title>
<path fill="none" stroke="midnightblue" d="M34.95,-190.37C40.24,-156.58 55.96,-87.53 99,-51 116.81,-35.88 140.9,-28.09 163.27,-24.16"/>
<polygon fill="midnightblue" stroke="midnightblue" points="31.47,-189.99 33.53,-200.38 38.4,-190.97 31.47,-189.99"/>
</g>
</g>
</svg>
