<?xml version="1.0" encoding="UTF-8" standalone="no"?>
<!DOCTYPE svg PUBLIC "-//W3C//DTD SVG 1.1//EN"
 "http://www.w3.org/Graphics/SVG/1.1/DTD/svg11.dtd">
<!-- Generated by graphviz version 2.43.0 (0)
 -->
<!-- Title: Graphical Class Hierarchy Pages: 1 -->
<svg width="281pt" height="330pt"
 viewBox="0.00 0.00 281.00 329.50" xmlns="http://www.w3.org/2000/svg" xmlns:xlink="http://www.w3.org/1999/xlink">
<g id="graph0" class="graph" transform="scale(1 1) rotate(0) translate(4 325.5)">
<title>Graphical Class Hierarchy</title>
<!-- Node113 -->
<g id="node1" class="node">
<title>Node113</title>
<g id="a_node1"><a xlink:title=" ">
<polygon fill="none" stroke="#bfbfbf" points="0,-154 0,-173 68,-173 68,-154 0,-154"/>
<text text-anchor="middle" x="34" y="-161" font-family="Helvetica,sans-Serif" font-size="10.00">false_type</text>
</a>
</g>
</g>
<!-- Node0 -->
<g id="node2" class="node">
<title>Node0</title>
<g id="a_node2"><a xlink:href="structalways__false.html" target="_top" xlink:title=" ">
<polygon fill="none" stroke="black" points="134,-302 134,-321 243,-321 243,-302 134,-302"/>
<text text-anchor="middle" x="188.5" y="-309" font-family="Helvetica,sans-Serif" font-size="10.00">always_false&lt; T &gt;</text>
</a>
</g>
</g>
<!-- Node113&#45;&gt;Node0 -->
<g id="edge1" class="edge">
<title>Node113&#45;&gt;Node0</title>
<path fill="none" stroke="midnightblue" d="M39.89,-183.06C48.1,-211.69 67.45,-264.62 104,-292.5 112.63,-299.08 123.13,-303.46 133.72,-306.34"/>
<polygon fill="midnightblue" stroke="midnightblue" points="43.18,-181.81 37.2,-173.06 36.42,-183.63 43.18,-181.81"/>
</g>
<!-- Node115 -->
<g id="node3" class="node">
<title>Node115</title>
<g id="a_node3"><a xlink:href="structis__binop__able__.html" target="_top" xlink:title=" ">
<polygon fill="none" stroke="black" points="130.5,-242 130.5,-283 246.5,-283 246.5,-242 130.5,-242"/>
<text text-anchor="start" x="138.5" y="-271" font-family="Helvetica,sans-Serif" font-size="10.00">is_binop_able_&lt; T,</text>
<text text-anchor="start" x="138.5" y="-260" font-family="Helvetica,sans-Serif" font-size="10.00"> U, BinaryOperation,</text>
<text text-anchor="middle" x="188.5" y="-249" font-family="Helvetica,sans-Serif" font-size="10.00"> Enable &gt;</text>
</a>
</g>
</g>
<!-- Node113&#45;&gt;Node115 -->
<g id="edge2" class="edge">
<title>Node113&#45;&gt;Node115</title>
<path fill="none" stroke="midnightblue" d="M48.75,-181.11C61.59,-196.52 82.03,-218.57 104,-232.5 112.07,-237.61 121.12,-242.01 130.22,-245.74"/>
<polygon fill="midnightblue" stroke="midnightblue" points="51.45,-178.89 42.44,-173.32 46.02,-183.3 51.45,-178.89"/>
</g>
<!-- Node116 -->
<g id="node4" class="node">
<title>Node116</title>
<g id="a_node4"><a xlink:href="structls_1_1aux_1_1_template_traits_1_1_binary_operators_1_1is_binopable_impl.html" target="_top" xlink:title=" ">
<polygon fill="none" stroke="black" points="106,-170.5 106,-222.5 271,-222.5 271,-170.5 106,-170.5"/>
<text text-anchor="start" x="114" y="-210.5" font-family="Helvetica,sans-Serif" font-size="10.00">ls::aux::TemplateTraits</text>
<text text-anchor="start" x="114" y="-199.5" font-family="Helvetica,sans-Serif" font-size="10.00">::BinaryOperators::isBinopable</text>
<text text-anchor="start" x="114" y="-188.5" font-family="Helvetica,sans-Serif" font-size="10.00">Impl&lt; T, U, BinaryOperation,</text>
<text text-anchor="middle" x="188.5" y="-177.5" font-family="Helvetica,sans-Serif" font-size="10.00"> Enable &gt;</text>
</a>
</g>
</g>
<!-- Node113&#45;&gt;Node116 -->
<g id="edge3" class="edge">
<title>Node113&#45;&gt;Node116</title>
<path fill="none" stroke="midnightblue" d="M78.04,-172.81C86.83,-174.71 96.35,-176.78 105.98,-178.86"/>
<polygon fill="midnightblue" stroke="midnightblue" points="78.6,-169.35 68.09,-170.66 77.12,-176.2 78.6,-169.35"/>
</g>
<!-- Node117 -->
<g id="node5" class="node">
<title>Node117</title>
<g id="a_node5"><a xlink:href="structls_1_1aux_1_1_template_traits_1_1_binary_operators_1_1parse_matrix_like.html" target="_top" xlink:title="Extracts data from matrix&#45;like types.">
<polygon fill="none" stroke="black" points="105,-110 105,-151 272,-151 272,-110 105,-110"/>
<text text-anchor="start" x="113" y="-139" font-family="Helvetica,sans-Serif" font-size="10.00">ls::aux::TemplateTraits</text>
<text text-anchor="start" x="113" y="-128" font-family="Helvetica,sans-Serif" font-size="10.00">::BinaryOperators::parseMatrix</text>
<text text-anchor="middle" x="188.5" y="-117" font-family="Helvetica,sans-Serif" font-size="10.00">Like&lt; T &gt;</text>
</a>
</g>
</g>
<!-- Node113&#45;&gt;Node117 -->
<g id="edge4" class="edge">
<title>Node113&#45;&gt;Node117</title>
<path fill="none" stroke="midnightblue" d="M77.99,-154.2C86.42,-152.37 95.51,-150.41 104.74,-148.41"/>
<polygon fill="midnightblue" stroke="midnightblue" points="77.12,-150.8 68.09,-156.34 78.6,-157.65 77.12,-150.8"/>
</g>
<!-- Node118 -->
<g id="node6" class="node">
<title>Node118</title>
<g id="a_node6"><a xlink:href="structls_1_1aux_1_1_template_traits_1_1_binary_operators_1_1sanitize_type_binop.html" target="_top" xlink:title="Sanitizes a binary operator return type.">
<polygon fill="none" stroke="black" points="104,-50 104,-91 273,-91 273,-50 104,-50"/>
<text text-anchor="start" x="112" y="-79" font-family="Helvetica,sans-Serif" font-size="10.00">ls::aux::TemplateTraits</text>
<text text-anchor="start" x="112" y="-68" font-family="Helvetica,sans-Serif" font-size="10.00">::BinaryOperators::sanitizeType</text>
<text text-anchor="middle" x="188.5" y="-57" font-family="Helvetica,sans-Serif" font-size="10.00">Binop&lt; T, BinOp &gt;</text>
</a>
</g>
</g>
<!-- Node113&#45;&gt;Node118 -->
<g id="edge5" class="edge">
<title>Node113&#45;&gt;Node118</title>
<path fill="none" stroke="midnightblue" d="M50.29,-146.16C63.38,-132.22 83.33,-112.96 104,-100.5 109.67,-97.08 115.8,-93.96 122.06,-91.14"/>
<polygon fill="midnightblue" stroke="midnightblue" points="47.59,-143.93 43.43,-153.67 52.76,-148.65 47.59,-143.93"/>
</g>
<!-- Node119 -->
<g id="node7" class="node">
<title>Node119</title>
<g id="a_node7"><a xlink:href="structls_1_1aux_1_1_template_traits_1_1is_instance.html" target="_top" xlink:title=" ">
<polygon fill="none" stroke="black" points="113.5,-0.5 113.5,-30.5 263.5,-30.5 263.5,-0.5 113.5,-0.5"/>
<text text-anchor="start" x="121.5" y="-18.5" font-family="Helvetica,sans-Serif" font-size="10.00">ls::aux::TemplateTraits</text>
<text text-anchor="middle" x="188.5" y="-7.5" font-family="Helvetica,sans-Serif" font-size="10.00">::isInstance&lt; class, class &gt;</text>
</a>
</g>
</g>
<!-- Node113&#45;&gt;Node119 -->
<g id="edge6" class="edge">
<title>Node113&#45;&gt;Node119</title>
<path fill="none" stroke="midnightblue" d="M40.78,-143.98C49.82,-116.8 69.9,-67.81 104,-40.5 108.84,-36.62 114.28,-33.34 119.99,-30.58"/>
<polygon fill="midnightblue" stroke="midnightblue" points="37.33,-143.27 37.66,-153.86 44,-145.38 37.33,-143.27"/>
</g>
</g>
</svg>
