<?xml version="1.0" encoding="UTF-8" standalone="no"?>
<!DOCTYPE svg PUBLIC "-//W3C//DTD SVG 1.1//EN"
 "http://www.w3.org/Graphics/SVG/1.1/DTD/svg11.dtd">
<!-- Generated by graphviz version 2.43.0 (0)
 -->
<!-- Title: ls::cli::BasicCLI::BasicCLIOptions Pages: 1 -->
<svg width="338pt" height="262pt"
 viewBox="0.00 0.00 338.00 262.00" xmlns="http://www.w3.org/2000/svg" xmlns:xlink="http://www.w3.org/1999/xlink">
<g id="graph0" class="graph" transform="scale(1 1) rotate(0) translate(4 258)">
<title>ls::cli::BasicCLI::BasicCLIOptions</title>
<!-- Node1 -->
<g id="node1" class="node">
<title>Node1</title>
<g id="a_node1"><a xlink:title=" ">
<polygon fill="#bfbfbf" stroke="black" points="109.5,-0.5 109.5,-30.5 204.5,-30.5 204.5,-0.5 109.5,-0.5"/>
<text text-anchor="start" x="117.5" y="-18.5" font-family="Helvetica,sans-Serif" font-size="10.00">ls::cli::BasicCLI::</text>
<text text-anchor="middle" x="157" y="-7.5" font-family="Helvetica,sans-Serif" font-size="10.00">BasicCLIOptions</text>
</a>
</g>
</g>
<!-- Node2 -->
<g id="node2" class="node">
<title>Node2</title>
<g id="a_node2"><a xlink:href="classls_1_1blocks_1_1aux_1_1_executor.html" target="_top" xlink:title=" ">
<polygon fill="none" stroke="black" points="90,-78.5 90,-97.5 224,-97.5 224,-78.5 90,-78.5"/>
<text text-anchor="middle" x="157" y="-85.5" font-family="Helvetica,sans-Serif" font-size="10.00">ls::blocks::aux::Executor</text>
</a>
</g>
</g>
<!-- Node2&#45;&gt;Node1 -->
<g id="edge1" class="edge">
<title>Node2&#45;&gt;Node1</title>
<path fill="none" stroke="#9a32cd" stroke-dasharray="5,2" d="M157,-68.24C157,-56.41 157,-41.38 157,-30.58"/>
<polygon fill="#9a32cd" stroke="#9a32cd" points="153.5,-68.36 157,-78.36 160.5,-68.36 153.5,-68.36"/>
<text text-anchor="middle" x="165" y="-52" font-family="Helvetica,sans-Serif" font-size="10.00"> ex</text>
</g>
<!-- Node3 -->
<g id="node3" class="node">
<title>Node3</title>
<g id="a_node3"><a xlink:href="structls_1_1blocks_1_1aux_1_1_strongly_connected_components_1_1_s_c_c_result.html" target="_top" xlink:title=" ">
<polygon fill="none" stroke="black" points="0,-145.5 0,-175.5 186,-175.5 186,-145.5 0,-145.5"/>
<text text-anchor="start" x="8" y="-163.5" font-family="Helvetica,sans-Serif" font-size="10.00">ls::blocks::aux::Strongly</text>
<text text-anchor="middle" x="93" y="-152.5" font-family="Helvetica,sans-Serif" font-size="10.00">ConnectedComponents::SCCResult</text>
</a>
</g>
</g>
<!-- Node3&#45;&gt;Node2 -->
<g id="edge2" class="edge">
<title>Node3&#45;&gt;Node2</title>
<path fill="none" stroke="#9a32cd" stroke-dasharray="5,2" d="M112.73,-137.76C124.91,-124.34 139.89,-107.85 148.93,-97.89"/>
<polygon fill="#9a32cd" stroke="#9a32cd" points="110.08,-135.48 105.95,-145.23 115.26,-140.18 110.08,-135.48"/>
<text text-anchor="middle" x="162" y="-119" font-family="Helvetica,sans-Serif" font-size="10.00"> components</text>
</g>
<!-- Node4 -->
<g id="node4" class="node">
<title>Node4</title>
<g id="a_node4"><a xlink:href="structls_1_1blocks_1_1_block_pack.html" target="_top" xlink:title=" ">
<polygon fill="none" stroke="black" points="204,-151 204,-170 322,-170 322,-151 204,-151"/>
<text text-anchor="middle" x="263" y="-158" font-family="Helvetica,sans-Serif" font-size="10.00">ls::blocks::BlockPack</text>
</a>
</g>
</g>
<!-- Node4&#45;&gt;Node2 -->
<g id="edge3" class="edge">
<title>Node4&#45;&gt;Node2</title>
<path fill="none" stroke="#9a32cd" stroke-dasharray="5,2" d="M241.58,-145.11C228.92,-136.62 212.57,-125.67 198,-116 188.77,-109.87 178.34,-103.01 170.31,-97.73"/>
<polygon fill="#9a32cd" stroke="#9a32cd" points="239.82,-148.14 250.07,-150.81 243.72,-142.33 239.82,-148.14"/>
<text text-anchor="middle" x="240" y="-119" font-family="Helvetica,sans-Serif" font-size="10.00"> blockPack</text>
</g>
<!-- Node5 -->
<g id="node5" class="node">
<title>Node5</title>
<g id="a_node5"><a xlink:href="classls_1_1blocks_1_1aux_1_1_directed_graph.html" target="_top" xlink:title=" ">
<polygon fill="none" stroke="black" points="196,-223.5 196,-253.5 330,-253.5 330,-223.5 196,-223.5"/>
<text text-anchor="start" x="204" y="-241.5" font-family="Helvetica,sans-Serif" font-size="10.00">ls::blocks::aux::Directed</text>
<text text-anchor="middle" x="263" y="-230.5" font-family="Helvetica,sans-Serif" font-size="10.00">Graph</text>
</a>
</g>
</g>
<!-- Node5&#45;&gt;Node4 -->
<g id="edge4" class="edge">
<title>Node5&#45;&gt;Node4</title>
<path fill="none" stroke="#9a32cd" stroke-dasharray="5,2" d="M263,-213.17C263,-198.4 263,-180.45 263,-170.06"/>
<polygon fill="#9a32cd" stroke="#9a32cd" points="259.5,-213.2 263,-223.2 266.5,-213.21 259.5,-213.2"/>
<text text-anchor="middle" x="278.5" y="-197" font-family="Helvetica,sans-Serif" font-size="10.00"> graph</text>
</g>
</g>
</svg>
